<svg  viewBox="0 0 129 119" fill="none" xmlns="http://www.w3.org/2000/svg">
<path d="M42.3762 96.4319L42.374 96.4318C36.0149 96.2356 30.3875 92.3382 29.8308 87.7446L22.7157 29.0359C22.159 24.4425 26.8803 20.8647 33.2397 21.061L91.5 22.9685C92.6198 23.0031 93.6071 23.687 93.7051 24.4957L104.349 83.2042C104.447 84.0128 103.619 84.6407 102.499 84.6062L101.159 84.5648L40.7096 82.6987C36.5858 82.5715 33.5249 84.891 33.8859 87.8697C34.247 90.8485 37.8948 93.3751 42.0186 93.5025L100.174 95.5609L100.176 95.561L101.516 95.6024C102.635 95.6369 103.623 96.3208 103.721 97.1294C103.819 97.9381 102.991 98.5658 101.871 98.5313L42.3762 96.4319Z" fill="#BC6342"/>
<path d="M101.597 82.8801L100.733 95.8908" stroke="#BC6342" stroke-width="2"/>
</svg>
