<?xml version="1.0" encoding="UTF-8"?>
<svg version="1.1" viewBox="0 0 45.416 31.206" xmlns="http://www.w3.org/2000/svg" xmlns:cc="http://creativecommons.org/ns#" xmlns:dc="http://purl.org/dc/elements/1.1/" xmlns:rdf="http://www.w3.org/1999/02/22-rdf-syntax-ns#">
<metadata>
<rdf:RDF>
<cc:Work rdf:about="">
<dc:format>image/svg+xml</dc:format>
<dc:type rdf:resource="http://purl.org/dc/dcmitype/StillImage"/>
<dc:title/>
</cc:Work>
</rdf:RDF>
</metadata>
<g transform="translate(-66.73 -20.521)">




<g transform="translate(-133.13 10.595)" fill="none" stroke="#000" stroke-width=".26458px">
<path d="m186.13 75.88c-0.11161 0.08059-0.22268 0.16078-0.32419 0.26217-0.10151 0.10139-0.19308 0.22367-0.27162 0.35056-0.0785 0.12689-0.14422 0.25873-0.18308 0.37408-0.0389 0.11535-0.051 0.21376-0.0577 0.28873-7e-3 0.07497-8e-3 0.12622-7e-3 0.16036 1e-3 0.03414 6e-3 0.05104-0.0717 0.02453-0.0774-0.02651-0.23648-0.09621-0.37209-0.16434-0.13562-0.06813-0.24775-0.13474-0.32624-0.19806-0.0785-0.06332-0.12329-0.12345-0.13851-0.22027-0.0152-0.09682-6.3e-4 -0.23024 0.0104-0.33564 0.011-0.10541 0.0183-0.18266 0.0746-0.30097 0.0562-0.11831 0.16112-0.2772 0.25505-0.39212 0.0939-0.11492 0.17743-0.18627 0.24945-0.24307 0.072-0.0568 0.13292-0.09935 0.19376-0.14186"/>

<g transform="translate(54.796 1.3846)">
<path d="m133.07 75.713c-0.10877 0.16171-0.21791 0.32397-0.30728 0.5157-0.0894 0.19173-0.15916 0.41314-0.18709 0.62391-0.0279 0.21077-0.0141 0.41079 0.0263 0.585s0.10723 0.32254 0.22271 0.47407c0.11548 0.15152 0.27815 0.30503 0.45734 0.45269 0.1792 0.14766 0.3742 0.28887 0.56676 0.40935 0.19255 0.12048 0.38261 0.22026 0.58852 0.29908 0.20591 0.07881 0.42765 0.13672 0.66008 0.1759 0.23243 0.03918 0.47533 0.05967 0.72554 0.0621 0.25021 0.0024 0.50756-0.01317 0.73993-0.03791s0.43975-0.05859 0.66411-0.10996c0.22435-0.05136 0.46708-0.12061 0.70293-0.19167 0.23585-0.07106 0.4655-0.14411 0.68624-0.22987 0.22074-0.08576 0.43257-0.1842 0.59043-0.28198 0.15785-0.09777 0.26177-0.19486 0.35058-0.31242 0.0888-0.11756 0.16257-0.25565 0.2012-0.4135 0.0386-0.15785 0.0421-0.33559 0.0177-0.49593s-0.0769-0.30335-0.15456-0.4419c-0.0777-0.13856-0.18061-0.27265-0.35479-0.3692-0.17419-0.09655-0.41969-0.15536-0.66028-0.18969-0.24059-0.03433-0.47616-0.04413-0.66669-0.04933s-0.543-0.0066-0.74769 0.07325c-0.20468 0.07986-0.50813 0.3844-0.73994 0.61704"/>

</g>
</g>
<g stroke-width=".26458px">
<path d="m101.84 35.801c0.13749 0.11482 0.41218 0.34421 0.76988 0.64378s0.79838 0.66931 1.2293 1c0.43095 0.33073 0.84834 0.61985 1.0742 0.73207 0.22586 0.11222 0.25889 0.04579 0.30465 0.13624 0.0458 0.09044 0.14178 0.49563 0.0645 0.77476-0.0773 0.27912-0.3091 0.51165-0.42499 0.62792-0.1159 0.11627-0.1159 0.11627-0.25239-0.10993-0.13649-0.2262-0.40964-0.6789-0.71625-0.98391-0.30661-0.30502-0.64821-0.46285-1.0076-0.46003-0.35941 0.0028-1.0083 0.2834-1.3002 0.48107s-0.36258 0.37185-0.44255 0.5521c-0.08 0.18024-0.16971 0.36764-0.18693 0.66792-0.0172 0.30028 0.0379 0.71353 0.043 1.0326 5e-3 0.31903-0.0392 0.5415-0.34873 0.63655-0.30948 0.09505-0.88415 0.06166-1.259-0.33622-0.37484-0.39788-0.55005-1.1624-0.58888-1.7351-0.03883-0.57272 0.05831-0.95328 0.19519-1.2341 0.13688-0.28083 0.40205-0.5519 0.60445-0.68674 0.2024-0.13485 0.38619-0.17879 0.38619-0.17879-2e-6 1e-6 -0.1838 0.04395-0.35616-0.0225s-0.33397-0.2443-0.49538-0.33376c-0.16141-0.08946-0.32294-0.09059-0.47256-0.23778-0.14962-0.14719-0.28675-0.4398-0.03125-0.67894 0.2555-0.23914 0.90214-0.42349 1.4085-0.47072 0.50636-0.04722 0.87205 0.04294 1.1261 0.07722s0.39684 0.01286 0.46813 0.0022c0.0713-0.01069 0.0713-0.01068 0.20878 0.10414z" fill="#8ff5f5"/>
<path d="m109.78 23.979c0.13338 0.31755 0.3867 0.92068 0.48328 1.1506 0.0966 0.22993 0.0966 0.22993 0.15388 0.93425 0.0573 0.70432 0.17189 2.1123 0.2184 3.0968 0.0465 0.98451 0.025 1.5454-0.14255 2.0186-0.16753 0.47326-0.48016 0.85806-0.79002 1.1575-0.30986 0.2994-0.61491 0.51176-0.9193 0.69775-0.30439 0.18599-0.79212 0.44207-0.92822 0.7091-0.13611 0.26703-0.013 0.59315 0.12314 1.4681 0.13616 0.87495 0.28582 2.3022 0.2828 3.1202-3e-3 0.81794-0.15846 1.0285-0.42535 1.0825-0.26689 0.05398-0.64644-0.0489-1.0138-0.11692-0.36737-0.06802-0.92715-0.12033-1.3147-0.23252-0.38755-0.11219-0.70497-0.29394-1.1901-0.75391-0.48512-0.45997-1.1378-1.1982-1.648-1.7225s-0.88034-0.83663-1.1712-1.0204c-0.29085-0.18378-0.50368-0.23991-0.62163-0.50399s-0.14072-0.73628 0.19634-1.4808c0.33705-0.74452 1.034-1.7611 2.0555-2.883s2.472-2.4441 3.5624-3.3373c1.0904-0.89321 1.873-1.4049 2.4234-1.6744 0.55045-0.26948 0.9079-0.30012 1.2455-0.32905" fill="hsl(30, 81%, 87%)"/>
<path d="m89.531 38.795c-0.46987 0.54185-0.66566 1.778-0.84151 2.8013-0.17585 1.0233-0.33354 1.8432-0.56178 2.3859-0.22823 0.54266-0.72106 0.98714-0.76172 1.25-0.04067 0.26282 0.27396 0.43088 0.52061 0.57864 0.24665 0.14776 0.42533 0.27517 0.71142 0.50483 0.28609 0.22966 0.67958 0.56154 1.083 0.8932 0.4034 0.33166 0.81669 0.66309 1.2201 0.96579 0.40341 0.3027 0.7969 0.57666 1.1946 0.86133 0.39771 0.28467 0.79961 0.58002 1.2894 0.8622 0.48979 0.28218 1.0674 0.55125 1.5562 0.75303s0.88871 0.33632 1.3 0.42493c0.41131 0.08861 0.834 0.13138 1.2948 0.17793 0.4608 0.04655 0.95976 0.09689 1.3901 0.11938 0.43036 0.02249 0.79317 0.01714 1.513 0.04347 0.71985 0.02634 1.7972 0.08433 2.5056 0.11554 0.70846 0.03122 1.048 0.03567 1.5301-0.0094 0.48215-0.04502 1.1066-0.13944 1.6343-0.26848 0.52765-0.12903 0.96014-0.2933 1.2812-0.44138 0.32105-0.14808 0.53158-0.28029 0.84736-0.51595 0.31577-0.23565 0.7368-0.57475 0.99486-1.0756 0.25807-0.50086 0.35297-1.162 0.31327-2.3554-0.0397-1.1934-0.21365-2.913-0.48876-4.0075-0.2751-1.0946-0.65127-1.5614-0.88898-1.7295-0.23772-0.16808-0.33672-0.03709-0.57424 0.12813-0.23752 0.16523-0.61369 0.3648-1.0136 0.5234-0.3999 0.15859-0.82359 0.2762-1.2349 0.35774-0.41129 0.08154-0.81022 0.12697-1.2458 0.09717-0.43554-0.0298-0.90773-0.13493-1.3059-0.25075s-0.72235-0.24238-1.0021-0.41013c-0.27978-0.16775-0.51512-0.37681-0.85196-0.33908-0.33685 0.03773-0.78332 0.32794-1.5989 0.39127-0.81554 0.06333-2.0045-0.09759-2.8096-0.38732-0.80506-0.28972-1.0695-0.55271-1.5489-0.87703-0.47933-0.32431-1.1115-0.64009-1.7163-0.93786s-1.1918-0.58227-1.8568-0.8007c-0.66496-0.21843-1.4085-0.37102-1.8784 0.17083z" fill="hsl(30, 81%, 87%)"/>
<path d="m66.894 39.922c6e-3 -0.06724 0.01814-0.20196 0.2706-0.42828 0.25245-0.22632 0.74514-0.54395 1.247-0.83318 0.50181-0.28922 1.0127-0.55001 1.5243-0.6591 0.5116-0.10909 1.0496-0.06439 1.6412 0.073 0.59151 0.13739 1.2494 0.36844 1.8471 0.68819 0.59771 0.31974 1.1367 0.72918 1.5589 1.2026 0.42217 0.47343 0.7292 1.0128 1.0064 1.507 0.2772 0.49414 0.55451 0.99728 0.79835 1.3361 0.24384 0.33877 0.46948 0.54055 0.70013 0.65033 0.23064 0.10977 0.46658 0.12804 0.79834-0.0032 0.33175-0.1312 0.76066-0.41256 1.0437-0.62453 0.28309-0.21198 0.42098-0.35498 0.74525-0.6629 0.32426-0.30792 0.83423-0.78012 1.2498-1.1605 0.4156-0.38035 0.73588-0.66798 1.1131-0.93914 0.37719-0.27116 0.81145-0.52584 1.2484-0.74539s1.0384-0.47196 1.5143-0.63201c0.47582-0.16005 0.90613-0.26154 1.5124-0.32647 0.6063-0.06493 1.3881-0.09328 1.9258-0.09169 0.53761 0.0016 0.8309 0.0331 0.99822 0.05645s0.20861 0.03847 0.17065 0.23717c-0.03795 0.1987-0.15491 0.5813-0.45731 1.8442-0.3024 1.2629-0.79028 3.4061-1.0736 4.4501s-0.36242 0.98849-0.46461 0.94307c-0.10219-0.04542-0.22749-0.0807-0.46167-0.10119-0.23418-0.02049-0.58416-0.02622-1.0315 0.06668-0.44736 0.0929-0.99543 0.28442-1.5502 0.55942-0.55479 0.27501-1.1162 0.63347-1.6967 0.99148-0.58057 0.35801-1.1792 0.71489-1.7143 1.0006-0.53512 0.28571-1.0062 0.49991-1.5193 0.71411-0.51309 0.2142-1.0682 0.4284-1.5791 0.58031-0.51095 0.1519-0.97646 0.24123-1.3849 0.27182-0.40841 0.03059-0.7591 0.0022-1.1569-0.10099-0.39782-0.10323-0.84322-0.2816-1.237-0.52536-0.39377-0.24375-0.73606-0.55308-1.0565-0.90037s-0.63011-0.74684-0.87241-1.227-0.4225-1.0477-0.53648-1.5987c-0.11398-0.55106-0.16157-1.0852-0.21987-1.5622-0.0583-0.47704-0.12732-0.89686-0.30696-1.3629-0.17965-0.46604-0.47004-0.97826-0.73015-1.3001-0.26012-0.32188-0.49009-0.45325-0.85045-0.51808-0.36036-0.06483-0.85104-0.06293-1.3106-0.04624-0.45956 0.01669-0.88794 0.04819-1.1331 0.03868-0.24517-0.0095-0.30777-0.06079-0.38722-0.12003-0.07945-0.05924-0.17604-0.12664-0.2105-0.24037-0.03446-0.11373-0.0065-0.27376 0.0076-0.35389 0.01402-0.08013 0.01402-0.08016 0.02006-0.1474z" fill="hsl(30, 81%, 87%)"/>
<g transform="translate(-31.717 -37.046)" fill="hsl(30, 81%, 87%)" stroke="#00a8a8">
<g fill="#8ff5f5">
<path d="m128.69 73.676c-0.0549-0.07266-0.10963-0.14513-0.11518-0.24944-6e-3 -0.10431 0.0385-0.24008 0.11696-0.38346 0.0784-0.14338 0.1911-0.29427 0.32762-0.4477s0.29681-0.30935 0.46836-0.43711c0.17155-0.12776 0.35424-0.2273 0.54304-0.30008 0.1888-0.07279 0.38318-0.11872 0.53124-0.11847s0.22469 0.03526 0.33316 0.05992 0.23647 0.03346 0.39094 0.05236c0.15448 0.0189 0.33543 0.04787 0.5199 0.09704 0.18446 0.04917 0.3724 0.11847 0.56314 0.1966 0.19074 0.07813 0.38429 0.16508 0.57223 0.27284 0.18794 0.10777 0.37028 0.23628 0.5177 0.37432 0.14741 0.13803 0.29426 0.33042 0.36049 0.41873 0.0662 0.08831 0.0655 0.08662 0.0874 0.12418 0.0218 0.03756 0.0646 0.11061 0.12915 0.13243 0.0646 0.02182 0.15037-0.0071 0.188-0.02341 0.0376-0.01635 0.0255-0.02065 0.0137-0.02486"/>
<path d="m128.69 73.676c0.16881-0.05006 0.33765-0.10012 0.44476-0.13175 0.10711-0.03163 0.15261-0.04486 0.22299-0.04134 0.0704 0.0035 0.16561 0.0237 0.30894 0.07019 0.14332 0.04649 0.33478 0.11926 0.52331 0.18694 0.18853 0.06768 0.38937 0.1354 0.54616 0.20695 0.1568 0.07155 0.27716 0.1494 0.39982 0.22754 0.12266 0.07814 0.2476 0.15658 0.34059 0.22444 0.093 0.06787 0.20568 0.17352 0.29513 0.15277 0.0895-0.02074 0.18177-0.14344 0.29553-0.2417 0.11376-0.09825 0.24888-0.17198 0.38629-0.23041 0.13741-0.05843 0.27704-0.10158 0.43632-0.1348 0.15929-0.03322 0.33814-0.05652 0.48204-0.04272 0.14389 0.0138 0.25272 0.0645 0.36126 0.11507"/>
<path d="m133.24 74.517c0.0955-0.09274 0.32942-0.31997 0.52615-0.44891 0.19672-0.12894 0.42531-0.22676 0.65771-0.29482 0.23239-0.06806 0.46851-0.10637 0.71869-0.07737 0.25018 0.02901 0.51463 0.12528 0.75048 0.25118 0.23584 0.1259 0.44323 0.28138 0.59513 0.44336 0.15189 0.16198 0.24841 0.33036 0.33896 0.52282 0.0906 0.19245 0.17519 0.40895 0.23059 0.60585s0.0816 0.37419 0.0967 0.48825c0.0151 0.11406 0.019 0.16479 0.0164 0.1831-3e-3 0.01831-0.012 4e-3 -0.0216-0.01059"/>
<path d="m129.61 74.777c-0.16833-0.05196-0.33698-0.10401-0.50648-0.11945-0.16951-0.01544-0.34076 6e-3 -0.50786 0.0572-0.16711 0.05121-0.33046 0.13229-0.47826 0.23767-0.1478 0.10538-0.27995 0.23502-0.40114 0.38636s-0.23177 0.32495-0.32879 0.53348c-0.097 0.20853-0.18067 0.4522-0.24004 0.63585-0.0594 0.18365-0.0944 0.30724-0.11457 0.42143-0.0201 0.11419-0.0253 0.21886-0.0284 0.30863-3e-3 0.08977-4e-3 0.16462 0.016 0.24172 0.0201 0.0771 0.0612 0.15637 0.10839 0.23324 0.0472 0.07687 0.10037 0.15122 0.17531 0.22786 0.075 0.07664 0.17187 0.15584 0.28384 0.22824 0.11196 0.0724 0.23875 0.13802 0.36992 0.20317 0.13118 0.06515 0.26653 0.12973 0.39981 0.19244 0.13327 0.0627 0.26443 0.12351 0.38594 0.19236 0.1215 0.06886 0.23337 0.1457 0.3379 0.23538 0.10454 0.08968 0.2018 0.19215 0.28205 0.27339 0.0802 0.08124 0.14226 0.14015 0.1956 0.19254 0.0533 0.05239 0.0977 0.09795 0.14518 0.14141 0.0475 0.04346 0.0983 0.08497 0.16131 0.1255 0.063 0.04054 0.13847 0.08024 0.24705 0.122 0.10857 0.04176 0.2496 0.08543 0.40288 0.10539 0.15329 0.01996 0.31847 0.01619 0.47997-0.0018 0.16149-0.01797 0.31934-0.0501 0.4687-0.09151s0.29052-0.09216 0.43711-0.17988c0.14659-0.08772 0.29883-0.21245 0.40258-0.3244s0.15902-0.21114 0.20154-0.31866c0.0425-0.10752 0.0722-0.22346 0.0952-0.33951 0.0229-0.11605 0.039-0.2323 0.0523-0.3345 0.0133-0.1022 0.0238-0.19044 0.0454-0.25584 0.0216-0.06541 0.054-0.10746 0.0651-0.1154 0.0112-0.0079 1e-3 0.01811-9e-3 0.04415"/>
</g>
<path d="m133.07 75.713c0.09-0.12606 0.17995-0.25214 0.32054-0.36112 0.1406-0.10898 0.33165-0.20075 0.54233-0.25664 0.21068-0.05589 0.44083-0.07592 0.65865-0.05179s0.42323 0.09229 0.59958 0.18446c0.17636 0.09218 0.32305 0.20776 0.45494 0.33408 0.13188 0.12632 0.24869 0.26309 0.3403 0.41058 0.0916 0.14749 0.21474 0.44038 0.28824 0.59307 0.0735 0.15269 0.12558 0.23254 0.17748 0.31208"/>
</g>
<path transform="translate(-.1134 -44.722)" d="m106.39 74.528c0.23801 0.28495 0.47578 0.56961 0.74071 0.79341 0.26494 0.2238 0.55696 0.38684 0.92175 0.5026 0.36479 0.11576 0.80232 0.18436 1.1903 0.18878 0.38801 0.0044 0.72657-0.05528 1.0438-0.17378 0.31721-0.1185 0.61319-0.2958 0.83556-0.5266 0.22236-0.23079 0.47673-0.7168 0.57574-1.0455 0.099-0.32868 0.0954-0.601 0.044-0.94426-0.0514-0.34326-0.15017-0.75582-0.2358-1.126-0.0856-0.3702-0.1579-0.69718-0.27306-1.0017s-0.27378-0.58734-0.42123-0.79319c-0.14746-0.20584-0.28407-0.33503-0.33905-0.37553-0.055-0.0405-0.0283 0.0076-2e-3 0.05539" fill="hsl(30, 81%, 87%)" stroke="hsl(30, 81%, 49%)"/>
<path transform="translate(-.1134 -44.722)" d="m110.75 75.989c-0.22277 0.29584-0.4455 0.59164-0.67809 0.82191s-0.47513 0.3951-0.7152 0.57553-0.47766 0.37644-0.75213 0.54904-0.5859 0.3218-0.89745 0.47107" fill="hsl(30, 81%, 87%)" stroke="hsl(30, 81%, 49%)"/>
<path transform="translate(-.1134 -44.722)" d="m85.359 83.355c2.6945 2.8648 1.7648 6.6942 1.7648 6.6942" fill="hsl(30, 81%, 87%)" stroke="hsl(30, 81%, 49%)"/>
<path transform="translate(-.1134 -44.722)" d="m93.36 84.134c-0.9444 0.9863-1.8888 1.9726-2.5407 3.2067-0.65189 1.2341-1.0112 2.7157-1.1939 3.4579-0.1827 0.74212-0.18849 0.74472-0.19439 0.74737" fill="hsl(30, 81%, 87%)" stroke="hsl(30, 81%, 49%)"/>
<path transform="translate(-.1134 -44.722)" d="m107.71 78.406c0.4327 0.44606 0.86515 0.89185 1.211 1.3322s0.60523 0.8751 0.91213 1.3553c0.30689 0.48023 0.66128 1.0059 0.9993 1.7548 0.33801 0.74887 0.65973 1.7209 0.86461 2.5553 0.20489 0.83438 0.29299 1.5311 0.36332 2.3584 0.0703 0.82726 0.12269 1.7815-0.0184 2.5423-0.1411 0.76079-0.4757 1.3265-0.89196 1.9012-0.41626 0.57465-0.91418 1.1582-1.332 1.582-0.41786 0.42373-0.75517 0.68725-1.0032 0.88327s-0.40636 0.32431-0.56478 0.45264" fill="hsl(30, 81%, 87%)" stroke="hsl(30, 81%, 49%)"/>
<path transform="translate(-.1134 -44.722)" d="m110.47 70.082c-0.22872-0.48806-0.4576-0.97644-0.68137-1.4237-0.22378-0.44729-0.44467-0.85758-0.72582-1.2043-0.28114-0.34667-0.62312-0.63117-1.0032-0.8744-0.38009-0.24323-0.79796-0.44482-1.3013-0.61874-0.5033-0.17392-1.092-0.32008-1.6964-0.4165s-1.2246-0.14304-1.8494-0.16038c-0.62475-0.01734-1.254-0.0054-1.9127 0.0299-0.65871 0.03527-1.3468 0.09386-1.9247 0.19948-0.57795 0.10562-1.0482 0.25912-1.505 0.44372s-0.90126 0.40068-1.3188 0.6485c-0.41752 0.24782-0.80682 0.52648-1.1415 0.91715-0.33465 0.39067-0.61393 0.89277-0.83933 1.3959-0.2254 0.5031-0.39689 1.0071-0.51273 1.5014-0.11584 0.49428-0.17603 0.97874-0.20806 1.474-0.03203 0.49528-0.03642 1.0676-0.0091 1.5433 0.02732 0.47568 0.08606 0.88781 0.20194 1.2722 0.11588 0.38437 0.28877 0.74095 0.4673 1.0446 0.17853 0.30366 0.36263 0.5544 0.53973 0.79096s0.3472 0.45896 0.60338 0.69855 0.59716 0.49555 0.96405 0.67505c0.36688 0.17951 0.75871 0.28216 1.1813 0.40999s0.8766 0.28106 1.3036 0.3916c0.42699 0.11054 0.82737 0.17858 1.1539 0.2501 0.32655 0.07153 0.57925 0.1465 0.71987 0.18014 0.14061 0.03364 0.16937 0.02606 0.19787 0.01854" fill="hsl(30, 81%, 87%)" stroke="hsl(30, 81%, 49%)"/>
<path transform="translate(-.1134 -44.722)" d="m67.038 84.308c0.22574-0.17377 0.45144-0.34751 0.6621-0.49984 0.21066-0.15233 0.39146-0.27334 0.63449-0.43238 0.24303-0.15904 0.5409-0.35115 0.84431-0.48642 0.30342-0.13526 0.61229-0.21367 0.95335-0.26174 0.34107-0.04808 0.71625-0.06596 1.0024-0.05134 0.28614 0.01462 0.48463 0.06171 0.6574 0.11075 0.17277 0.04904 0.32001 0.10005 0.49521 0.16722 0.1752 0.06717 0.3788 0.15066 0.59553 0.24856 0.21673 0.0979 0.44582 0.2098 0.68697 0.32824 0.24115 0.11844 0.49384 0.24319 0.72237 0.3979 0.22853 0.15472 0.43292 0.3393 0.63521 0.53115 0.20229 0.19185 0.40249 0.39092 0.56728 0.61681 0.1648 0.22589 0.29429 0.47851 0.40068 0.70879 0.10638 0.23028 0.18968 0.43817 0.28138 0.66308 0.0917 0.22492 0.1918 0.46683 0.29493 0.67155 0.10313 0.20472 0.20922 0.37223 0.31402 0.51132 0.1048 0.13909 0.20825 0.2498 0.3095 0.34575 0.10125 0.09596 0.2002 0.17714 0.32041 0.25267 0.12021 0.07553 0.2616 0.14546 0.4173 0.17806 0.1557 0.0326 0.43768 0.02503 0.62421-0.03218s0.40641-0.219 0.59544-0.37536c0.18902-0.15636 0.38352-0.33403 0.57668-0.51309 0.19316-0.17906 0.3853-0.3598 0.53712-0.50066 0.15182-0.14086 0.26346-0.24197 0.38124-0.3519 0.11777-0.10994 0.24167-0.22869 0.51938-0.50033 0.27771-0.27164 0.70923-0.69616 1.0532-1.0071 0.34392-0.31095 0.60142-0.50924 0.88321-0.68282 0.28178-0.17358 0.58837-0.32288 0.91371-0.45842 0.32534-0.13553 0.95538-0.3585 1.3006-0.46971 0.34519-0.11121 0.54819-0.16121 0.82181-0.21857 0.27362-0.05736 0.61973-0.12244 0.9858-0.16902 0.36607-0.04657 0.75464-0.07496 1.1232-0.08597 0.36857-0.011 0.71785-0.0047 1.1067 0.02776s0.81724 0.09105 1.2169 0.15974c0.3997 0.06868 0.77069 0.14743 1.1364 0.25109 0.36575 0.10366 0.72624 0.23218 1.164 0.41641 0.43772 0.18423 0.95316 0.42436 1.3106 0.60545 0.35744 0.18109 0.81904 0.46338 1.1494 0.66539" fill="none" stroke="hsl(30, 81%, 49%)"/>
<path transform="translate(-.1134 -44.722)" d="m108.06 84.293c0.1168-0.0023 0.23335-0.0047 0.36141-0.02508 0.12807-0.02041 0.2677-0.05883 0.4374-0.11127 0.16969-0.05244 0.36962-0.11893 0.57123-0.19022 0.20161-0.07129 0.40562-0.14764 0.57832-0.22702 0.1727-0.07938 0.31443-0.1619 0.45038-0.2534s0.26615-0.19198 0.34784-0.26108c0.0817-0.0691 0.11497-0.10692 0.14827-0.14476" fill="none" stroke="hsl(30, 81%, 49%)"/>
<path transform="translate(-.1134 -44.722)" d="m67.001 84.712c-0.0087 0.09467-0.01734 0.18912-0.02315 0.26698-0.0058 0.07785-0.0088 0.13911 0.03145 0.20871 0.04023 0.0696 0.1234 0.14758 0.20411 0.19861 0.08071 0.05104 0.15889 0.0753 0.24959 0.09554 0.09069 0.02024 0.1939 0.03651 0.29102 0.04512 0.09712 0.0086 0.18869 0.0096 0.29882 0.0075 0.11013-0.0021 0.23907-0.0072 0.36527-0.01635 0.12621-0.0091 0.24969-0.02227 0.35435-0.03529s0.19059-0.02593 0.29357-0.03057c0.10298-0.0046 0.22348-0.0011 0.34575 0.0046 0.12227 0.0057 0.2465 0.01349 0.38115 0.0272 0.13464 0.01371 0.27966 0.03331 0.40814 0.07866 0.12848 0.04535 0.24077 0.11651 0.34889 0.2014 0.10812 0.08488 0.21233 0.18358 0.30572 0.29653 0.09339 0.11295 0.17605 0.24015 0.2722 0.38471 0.09615 0.14456 0.20578 0.30649 0.29459 0.46319 0.08881 0.1567 0.15687 0.30817 0.2142 0.48377 0.05732 0.1756 0.10391 0.37502 0.15236 0.62035 0.04845 0.24533 0.09895 0.53763 0.12446 0.82175 0.02551 0.28412 0.02618 0.56195 0.07128 0.9129s0.13482 0.77679 0.23831 1.1528 0.22136 0.70442 0.36316 0.98288c0.1418 0.27846 0.3077 0.50777 0.52121 0.77079 0.21351 0.26302 0.4746 0.55975 0.73503 0.80921 0.26042 0.24946 0.52011 0.45169 0.82521 0.62926 0.3051 0.17757 0.65601 0.33076 0.9798 0.43706 0.32378 0.10631 0.58416 0.15858 0.87392 0.16168 0.28976 0.0031 0.5907-0.04654 0.90386-0.10505 0.31316-0.05852 0.63878-0.12595 0.93463-0.18231 0.29585-0.05636 0.44908-0.08244 0.78475-0.21776 0.33567-0.13532 0.79849-0.37081 1.2053-0.57048 0.40686-0.19968 0.75682-0.36314 1.1018-0.5459 0.34501-0.18277 0.68603-0.38549 1.0238-0.59438 0.33773-0.20889 0.68991-0.43532 1.015-0.66148s0.63168-0.45752 0.98316-0.6638c0.35148-0.20628 0.74895-0.38799 1.1305-0.5228 0.38152-0.13482 0.74762-0.22302 1.0702-0.25593 0.32254-0.03292 0.60142-0.01062 0.85227 0.05116s0.47357 0.1629 0.71288 0.29858c0.23931 0.13568 0.49521 0.30585 0.7075 0.45786 0.2123 0.15201 0.33697 0.25091 0.4941 0.40463s0.32474 0.34474 0.51252 0.51684c0.18778 0.1721 0.39566 0.32534 0.60754 0.48466 0.21188 0.15932 0.4286 0.32537 0.65118 0.48384s0.45208 0.31016 0.71183 0.49964c0.25975 0.18948 0.5505 0.41729 0.846 0.62442 0.29551 0.20714 0.59595 0.39379 1.0558 0.61981 0.45986 0.22602 1.0791 0.49145 1.5637 0.67581 0.48462 0.18436 0.83461 0.28768 1.1682 0.35731 0.33364 0.06963 0.65093 0.10563 0.90869 0.12478 0.25776 0.01915 0.45598 0.02149 0.90013 0.03879s1.1342 0.04957 1.8586 0.10729c0.72442 0.05772 1.4832 0.14088 2.2392 0.17866 0.75597 0.03778 1.5092 0.03021 2.2189-0.04163 0.70977-0.07185 1.3761-0.20792 1.9626-0.40699 0.5864-0.19906 1.0929-0.46108 1.5993-0.72305" fill="none" stroke="hsl(30, 81%, 49%)"/>
<path transform="translate(-.1134 -44.722)" d="m101.86 86.339c-0.013 0.06835-0.0259 0.13649-0.0252 0.23743 6.5e-4 0.10094 0.0148 0.2346 0.0449 0.37048 0.0301 0.13588 0.0757 0.27311 0.13145 0.39942 0.0557 0.12631 0.12129 0.24122 0.20208 0.3583 0.0808 0.11709 0.1769 0.23661 0.27702 0.34561 0.10012 0.10901 0.20433 0.2077 0.35531 0.34425 0.15099 0.13655 0.3483 0.31059 0.56092 0.47454 0.21263 0.16395 0.44031 0.31763 0.69235 0.47136 0.25205 0.15373 0.52804 0.30731 0.85455 0.44941 0.3265 0.1421 0.70302 0.27258 1.0738 0.39486 0.37073 0.12228 0.73551 0.23632 1.0165 0.31749 0.28098 0.08117 0.47813 0.12948 0.81149 0.19955 0.33336 0.07007 0.80225 0.16177 1.2874 0.22635 0.48513 0.06458 0.98589 0.10199 1.3902 0.07344 0.40434-0.02855 0.7122-0.12299 0.94019-0.219 0.22799-0.09601 0.37478-0.19265 0.52221-0.28972" fill="hsl(30, 81%, 87%)" stroke="hsl(30, 81%, 49%)"/>
<path transform="translate(-.1134 -44.722)" d="m98.501 87.579c-0.04164 0.07852-0.08321 0.15691-0.11404 0.26029-0.03083 0.10338-0.03966 0.15963-0.04787 0.30265-0.0082 0.14302-0.01022 0.33678-0.0025 0.52356 0.0077 0.18678 0.02494 0.36544 0.06757 0.56879s0.11052 0.43076 0.19526 0.64623c0.08473 0.21547 0.18623 0.41895 0.29543 0.64041 0.1092 0.22145 0.22609 0.46085 0.36542 0.69017 0.13933 0.22932 0.30103 0.44855 0.44769 0.6303 0.14666 0.18174 0.27826 0.32602 0.44731 0.51241 0.16904 0.18639 0.37596 0.41537 0.54788 0.59857 0.17191 0.1832 0.30902 0.32085 0.46642 0.47654s0.33509 0.32943 0.55153 0.50289 0.46913 0.34503 0.70102 0.51655c0.23188 0.17153 0.44175 0.34214 0.70657 0.52076s0.58456 0.36526 0.84566 0.5232c0.26109 0.15793 0.46353 0.28712 0.66177 0.38508 0.19824 0.09796 0.39226 0.16479 0.58597 0.2315" fill="hsl(30, 81%, 87%)" stroke="hsl(30, 81%, 49%)"/>
<path transform="translate(-.1134 -44.722)" d="m96.26 86.091c-0.08722 0.07234-0.1744 0.14466-0.2562 0.22327-0.0818 0.07862-0.15816 0.1635-0.22331 0.24352-0.06515 0.08003-0.11912 0.15522-0.2001 0.26451-0.08098 0.10929-0.18897 0.25267-0.29611 0.43871s-0.21372 0.41539-0.29756 0.64308c-0.08384 0.22769-0.14533 0.45485-0.19729 0.71125-0.05196 0.2564-0.09453 0.5424-0.12447 0.84601-0.02994 0.30361-0.04727 0.62479-0.06089 0.93174-0.01361 0.30695-0.02351 0.59962-0.02054 0.91503 3e-3 0.31542 0.01881 0.65352 0.04753 0.95246s0.0703 0.55865 0.11057 0.82439c0.04027 0.26574 0.0795 0.53924 0.13403 0.79985 0.05453 0.2606 0.1242 0.50832 0.2141 0.71413 0.0899 0.20581 0.19977 0.36929 0.2911 0.50226 0.09132 0.13297 0.16409 0.23545 0.23664 0.3376" fill="hsl(30, 81%, 87%)" stroke="hsl(30, 81%, 49%)"/>
<path transform="translate(-.1134 -44.722)" d="m68.516 83.355c0.12257 0.05483 0.24433 0.10929 0.35759 0.19294 0.11326 0.08365 0.21806 0.19647 0.30261 0.31658 0.08455 0.12011 0.14922 0.2479 0.19596 0.36762 0.04674 0.11972 0.07571 0.23155 0.09784 0.36986s0.03744 0.30269 0.0323 0.42298c-0.0051 0.12029-0.03059 0.19608-0.05604 0.27189" fill="hsl(30, 81%, 87%)" stroke="hsl(30, 81%, 49%)"/>
<path transform="translate(-.1134 -44.722)" d="m71.624 82.703c0.06789 0.11984 0.13085 0.23098 0.18032 0.34584 0.04946 0.11486 0.0831 0.2291 0.10795 0.36166 0.02485 0.13256 0.04094 0.28332 0.04663 0.42941 0.0057 0.1461 9.8e-4 0.28755-0.01659 0.45589s-0.04802 0.36376-0.10121 0.52446c-0.05319 0.1607-0.12872 0.2862-0.21847 0.4112-0.08976 0.125-0.19334 0.24893-0.2876 0.33428-0.09426 0.08536-0.17861 0.13174-0.25924 0.17116-0.08064 0.03942-0.1574 0.07173-0.23423 0.10408" fill="hsl(30, 81%, 87%)" stroke="hsl(30, 81%, 49%)"/>
<path transform="translate(-.1134 -44.722)" d="m80.579 86.795c0.19506 0.04647 0.38977 0.09286 0.58804 0.16907 0.19826 0.07621 0.40039 0.18233 0.59433 0.30308 0.19395 0.12074 0.38119 0.25708 0.55033 0.40332 0.16914 0.14624 0.32134 0.3033 0.46115 0.46369 0.13981 0.16039 0.26751 0.32432 0.40359 0.54529 0.13609 0.22098 0.28061 0.49895 0.38005 0.78049 0.09944 0.28154 0.15388 0.56665 0.18925 0.82546 0.03537 0.25881 0.0517 0.49135 0.05367 0.70806 2e-3 0.21671-0.0104 0.41763-0.02275 0.61828" fill="hsl(30, 81%, 87%)" stroke="hsl(30, 81%, 49%)"/>
<path transform="translate(-.1134 -44.722)" d="m78.303 88.328c0.05337 0.11192 0.10657 0.2235 0.17446 0.36652 0.06789 0.14302 0.15064 0.31783 0.22808 0.48552s0.14974 0.32859 0.2251 0.49085 0.15382 0.32599 0.22322 0.47978c0.06941 0.1538 0.1298 0.2977 0.19141 0.45395 0.06162 0.15625 0.12448 0.32487 0.17271 0.47833 0.04824 0.15346 0.0819 0.29179 0.11196 0.43991 0.03007 0.14812 0.05656 0.30602 0.07834 0.4615 0.02178 0.15547 0.03884 0.3085 0.04562 0.46785 0.0068 0.15936 0.0033 0.32419-0.01242 0.47518-0.01573 0.15099-0.0437 0.28776-0.08709 0.40395-0.04339 0.1162-0.1014 0.21066-0.15228 0.29354-0.05088 0.08288-0.09365 0.15257-0.14851 0.22407-0.05485 0.0715-0.12181 0.14471-0.18861 0.21775" fill="hsl(30, 81%, 87%)" stroke="hsl(30, 81%, 49%)"/>
<path transform="translate(-.1134 -44.722)" d="m76.92 87.668c-0.0074 0.13054-0.01488 0.26085-0.04634 0.41841-0.03145 0.15756-0.08689 0.34242-0.14629 0.50845-0.0594 0.16604-0.12275 0.31326-0.19031 0.45904s-0.13933 0.29012-0.21679 0.42954-0.16061 0.27395-0.26924 0.41601-0.24274 0.29169-0.37093 0.42843-0.25044 0.26057-0.39673 0.38835-0.31696 0.25976-0.47942 0.37324c-0.16246 0.11348-0.31688 0.20858-0.48126 0.29988-0.16438 0.09129-0.33897 0.17888-0.50665 0.24806-0.16768 0.06917-0.32846 0.11993-0.47689 0.16149-0.14843 0.04156-0.28415 0.07383-0.40467 0.09634-0.12052 0.02251-0.22567 0.03521-0.33108 0.04793" fill="hsl(30, 81%, 87%)" stroke="hsl(30, 81%, 49%)"/>
<path transform="translate(-.1134 -44.722)" d="m74.811 84.276c-0.01492 0.13566-0.02976 0.27064-0.07104 0.42945s-0.10923 0.34205-0.19765 0.50922c-0.08843 0.16717-0.19764 0.31897-0.31778 0.45993-0.12014 0.14096-0.2518 0.27173-0.40893 0.40229-0.15713 0.13056-0.341 0.26188-0.52151 0.39051-0.1805 0.12863-0.35877 0.25538-0.52457 0.35928-0.1658 0.1039-0.31947 0.1852-0.443 0.25243-0.12353 0.06724-0.21665 0.12027-0.31398 0.16784-0.09733 0.04757-0.19853 0.08949-0.30002 0.13154" fill="hsl(30, 81%, 87%)" stroke="hsl(30, 81%, 49%)"/>
<path transform="translate(-.1134 -44.722)" d="m101.47 83.389c-0.10877 0.16171-0.21791 0.32397-0.30728 0.5157-0.0894 0.19173-0.15916 0.41314-0.18709 0.62391-0.0279 0.21077-0.0141 0.41079 0.0263 0.585s0.10723 0.32254 0.22271 0.47407c0.11548 0.15152 0.27815 0.30503 0.45734 0.45269 0.1792 0.14766 0.3742 0.28887 0.56676 0.40935 0.19255 0.12048 0.38261 0.22026 0.58852 0.29908 0.20591 0.07881 0.42765 0.13672 0.66008 0.1759 0.23243 0.03918 0.47533 0.05967 0.72554 0.0621 0.25021 0.0024 0.50756-0.01317 0.73993-0.03791s0.43975-0.05859 0.66411-0.10996c0.22435-0.05136 0.46708-0.12061 0.70293-0.19167 0.23585-0.07106 0.4655-0.14411 0.68624-0.22987 0.22074-0.08576 0.43257-0.1842 0.59043-0.28198 0.15785-0.09777 0.26177-0.19486 0.35058-0.31242 0.0888-0.11756 0.16257-0.25565 0.2012-0.4135 0.0386-0.15785 0.0421-0.33559 0.0177-0.49593s-0.0769-0.30335-0.15456-0.4419c-0.0777-0.13856-0.18061-0.27265-0.35479-0.3692-0.17419-0.09655-0.41969-0.15536-0.66028-0.18969-0.24059-0.03433-0.47616-0.04413-0.66669-0.04933s-0.543-0.0066-0.74769 0.07325c-0.20468 0.07986-0.50813 0.3844-0.73994 0.61704" fill="hsl(30, 81%, 87%)" stroke="hsl(30, 81%, 49%)"/>
<path transform="translate(-.1134 -44.722)" d="m103 71.296c0.69487-0.32653 1.3896-0.65302 2.0742-0.58492 0.68455 0.0681 1.3587 0.5305 2.0325 0.9927" fill="none" stroke="hsl(30, 81%, 49%)"/>
<path d="m99.612 37.449c-0.11161 0.08059-0.22268 0.16078-0.32419 0.26217-0.10151 0.10139-0.19308 0.22367-0.27162 0.35056-0.07854 0.12689-0.14422 0.25873-0.18308 0.37408-0.03886 0.11535-0.05096 0.21376-0.05769 0.28873-0.0067 0.07497-0.0081 0.12622-0.0066 0.16036 0.0015 0.03414 0.0057 0.05104-0.07168 0.02453-0.07736-0.02651-0.23647-0.09621-0.37209-0.16434-0.13562-0.06813-0.24774-0.13474-0.32624-0.19806-0.0785-0.06332-0.12328-0.12345-0.13851-0.22027-0.01522-0.09682-6.23e-4 -0.23024 0.01036-0.33564 0.01099-0.10541 0.01835-0.18266 0.07456-0.30097 0.05621-0.11831 0.16112-0.2772 0.25505-0.39212 0.09393-0.11492 0.17743-0.18627 0.24945-0.24307 0.07202-0.0568 0.13292-0.09935 0.19376-0.14186" fill="#f0d488" stroke="#e3ad1c"/>
<path d="m101.06 34.546c-0.0899 0.15027-0.17869 0.29857-0.21651 0.36176-0.0378 0.06319 0.12714-0.21244 0.21651-0.36176" fill="hsl(30, 81%, 49%)" stroke="hsl(30, 81%, 49%)"/>
</g>
<g transform="translate(53.977 .31752)" stroke-width=".26458px">
<path d="m101.84 35.801c0.13749 0.11482 0.41218 0.34421 0.76988 0.64378s0.79838 0.66931 1.2293 1c0.43095 0.33073 0.84834 0.61985 1.0742 0.73207 0.22586 0.11222 0.25889 0.04579 0.30465 0.13624 0.0458 0.09044 0.14178 0.49563 0.0645 0.77476-0.0773 0.27912-0.3091 0.51165-0.42499 0.62792-0.1159 0.11627-0.1159 0.11627-0.25239-0.10993-0.13649-0.2262-0.40964-0.6789-0.71625-0.98391-0.30661-0.30502-0.64821-0.46285-1.0076-0.46003-0.35941 0.0028-1.0083 0.2834-1.3002 0.48107s-0.36258 0.37185-0.44255 0.5521c-0.08 0.18024-0.16971 0.36764-0.18693 0.66792-0.0172 0.30028 0.0379 0.71353 0.043 1.0326 5e-3 0.31903-0.0392 0.5415-0.34873 0.63655-0.30948 0.09505-0.88415 0.06166-1.259-0.33622-0.37484-0.39788-0.55005-1.1624-0.58888-1.7351-0.03883-0.57272 0.05831-0.95328 0.19519-1.2341 0.13688-0.28083 0.40205-0.5519 0.60445-0.68674 0.2024-0.13485 0.38619-0.17879 0.38619-0.17879-2e-6 1e-6 -0.1838 0.04395-0.35616-0.0225s-0.33397-0.2443-0.49538-0.33376c-0.16141-0.08946-0.32294-0.09059-0.47256-0.23778-0.14962-0.14719-0.28675-0.4398-0.03125-0.67894 0.2555-0.23914 0.90214-0.42349 1.4085-0.47072 0.50636-0.04722 0.87205 0.04294 1.1261 0.07722s0.39684 0.01286 0.46813 0.0022c0.0713-0.01069 0.0713-0.01068 0.20878 0.10414z" fill="#8ff5f5"/>
<path d="m109.78 23.979c0.13338 0.31755 0.3867 0.92068 0.48328 1.1506 0.0966 0.22993 0.0966 0.22993 0.15388 0.93425 0.0573 0.70432 0.17189 2.1123 0.2184 3.0968 0.0465 0.98451 0.025 1.5454-0.14255 2.0186-0.16753 0.47326-0.48016 0.85806-0.79002 1.1575-0.30986 0.2994-0.61491 0.51176-0.9193 0.69775-0.30439 0.18599-0.79212 0.44207-0.92822 0.7091-0.13611 0.26703-0.013 0.59315 0.12314 1.4681 0.13616 0.87495 0.28582 2.3022 0.2828 3.1202-3e-3 0.81794-0.15846 1.0285-0.42535 1.0825-0.26689 0.05398-0.64644-0.0489-1.0138-0.11692-0.36737-0.06802-0.92715-0.12033-1.3147-0.23252-0.38755-0.11219-0.70497-0.29394-1.1901-0.75391-0.48512-0.45997-1.1378-1.1982-1.648-1.7225s-0.88034-0.83663-1.1712-1.0204c-0.29085-0.18378-0.50368-0.23991-0.62163-0.50399s-0.14072-0.73628 0.19634-1.4808c0.33705-0.74452 1.034-1.7611 2.0555-2.883s2.472-2.4441 3.5624-3.3373c1.0904-0.89321 1.873-1.4049 2.4234-1.6744 0.55045-0.26948 0.9079-0.30012 1.2455-0.32905" fill="hsl(30, 81%, 87%)"/>
<path d="m89.531 38.795c-0.46987 0.54185-0.66566 1.778-0.84151 2.8013-0.17585 1.0233-0.33354 1.8432-0.56178 2.3859-0.22823 0.54266-0.72106 0.98714-0.76172 1.25-0.04067 0.26282 0.27396 0.43088 0.52061 0.57864 0.24665 0.14776 0.42533 0.27517 0.71142 0.50483 0.28609 0.22966 0.67958 0.56154 1.083 0.8932 0.4034 0.33166 0.81669 0.66309 1.2201 0.96579 0.40341 0.3027 0.7969 0.57666 1.1946 0.86133 0.39771 0.28467 0.79961 0.58002 1.2894 0.8622 0.48979 0.28218 1.0674 0.55125 1.5562 0.75303s0.88871 0.33632 1.3 0.42493c0.41131 0.08861 0.834 0.13138 1.2948 0.17793 0.4608 0.04655 0.95976 0.09689 1.3901 0.11938 0.43036 0.02249 0.79317 0.01714 1.513 0.04347 0.71985 0.02634 1.7972 0.08433 2.5056 0.11554 0.70846 0.03122 1.048 0.03567 1.5301-0.0094 0.48215-0.04502 1.1066-0.13944 1.6343-0.26848 0.52765-0.12903 0.96014-0.2933 1.2812-0.44138 0.32105-0.14808 0.53158-0.28029 0.84736-0.51595 0.31577-0.23565 0.7368-0.57475 0.99486-1.0756 0.25807-0.50086 0.35297-1.162 0.31327-2.3554-0.0397-1.1934-0.21365-2.913-0.48876-4.0075-0.2751-1.0946-0.65127-1.5614-0.88898-1.7295-0.23772-0.16808-0.33672-0.03709-0.57424 0.12813-0.23752 0.16523-0.61369 0.3648-1.0136 0.5234-0.3999 0.15859-0.82359 0.2762-1.2349 0.35774-0.41129 0.08154-0.81022 0.12697-1.2458 0.09717-0.43554-0.0298-0.90773-0.13493-1.3059-0.25075s-0.72235-0.24238-1.0021-0.41013c-0.27978-0.16775-0.51512-0.37681-0.85196-0.33908-0.33685 0.03773-0.78332 0.32794-1.5989 0.39127-0.81554 0.06333-2.0045-0.09759-2.8096-0.38732-0.80506-0.28972-1.0695-0.55271-1.5489-0.87703-0.47933-0.32431-1.1115-0.64009-1.7163-0.93786s-1.1918-0.58227-1.8568-0.8007c-0.66496-0.21843-1.4085-0.37102-1.8784 0.17083z" fill="hsl(30, 81%, 87%)"/>
<path d="m66.894 39.922c6e-3 -0.06724 0.01814-0.20196 0.2706-0.42828 0.25245-0.22632 0.74514-0.54395 1.247-0.83318 0.50181-0.28922 1.0127-0.55001 1.5243-0.6591 0.5116-0.10909 1.0496-0.06439 1.6412 0.073 0.59151 0.13739 1.2494 0.36844 1.8471 0.68819 0.59771 0.31974 1.1367 0.72918 1.5589 1.2026 0.42217 0.47343 0.7292 1.0128 1.0064 1.507 0.2772 0.49414 0.55451 0.99728 0.79835 1.3361 0.24384 0.33877 0.46948 0.54055 0.70013 0.65033 0.23064 0.10977 0.46658 0.12804 0.79834-0.0032 0.33175-0.1312 0.76066-0.41256 1.0437-0.62453 0.28309-0.21198 0.42098-0.35498 0.74525-0.6629 0.32426-0.30792 0.83423-0.78012 1.2498-1.1605 0.4156-0.38035 0.73588-0.66798 1.1131-0.93914 0.37719-0.27116 0.81145-0.52584 1.2484-0.74539s1.0384-0.47196 1.5143-0.63201c0.47582-0.16005 0.90613-0.26154 1.5124-0.32647 0.6063-0.06493 1.3881-0.09328 1.9258-0.09169 0.53761 0.0016 0.8309 0.0331 0.99822 0.05645s0.20861 0.03847 0.17065 0.23717c-0.03795 0.1987-0.15491 0.5813-0.45731 1.8442-0.3024 1.2629-0.79028 3.4061-1.0736 4.4501s-0.36242 0.98849-0.46461 0.94307c-0.10219-0.04542-0.22749-0.0807-0.46167-0.10119-0.23418-0.02049-0.58416-0.02622-1.0315 0.06668-0.44736 0.0929-0.99543 0.28442-1.5502 0.55942-0.55479 0.27501-1.1162 0.63347-1.6967 0.99148-0.58057 0.35801-1.1792 0.71489-1.7143 1.0006-0.53512 0.28571-1.0062 0.49991-1.5193 0.71411-0.51309 0.2142-1.0682 0.4284-1.5791 0.58031-0.51095 0.1519-0.97646 0.24123-1.3849 0.27182-0.40841 0.03059-0.7591 0.0022-1.1569-0.10099-0.39782-0.10323-0.84322-0.2816-1.237-0.52536-0.39377-0.24375-0.73606-0.55308-1.0565-0.90037s-0.63011-0.74684-0.87241-1.227-0.4225-1.0477-0.53648-1.5987c-0.11398-0.55106-0.16157-1.0852-0.21987-1.5622-0.0583-0.47704-0.12732-0.89686-0.30696-1.3629-0.17965-0.46604-0.47004-0.97826-0.73015-1.3001-0.26012-0.32188-0.49009-0.45325-0.85045-0.51808-0.36036-0.06483-0.85104-0.06293-1.3106-0.04624-0.45956 0.01669-0.88794 0.04819-1.1331 0.03868-0.24517-0.0095-0.30777-0.06079-0.38722-0.12003-0.07945-0.05924-0.17604-0.12664-0.2105-0.24037-0.03446-0.11373-0.0065-0.27376 0.0076-0.35389 0.01402-0.08013 0.01402-0.08016 0.02006-0.1474z" fill="hsl(30, 81%, 87%)"/>
<g transform="translate(-31.717 -37.046)" fill="hsl(30, 81%, 87%)" stroke="#00a8a8">
<g fill="#8ff5f5">
<path d="m128.69 73.676c-0.0549-0.07266-0.10963-0.14513-0.11518-0.24944-6e-3 -0.10431 0.0385-0.24008 0.11696-0.38346 0.0784-0.14338 0.1911-0.29427 0.32762-0.4477s0.29681-0.30935 0.46836-0.43711c0.17155-0.12776 0.35424-0.2273 0.54304-0.30008 0.1888-0.07279 0.38318-0.11872 0.53124-0.11847s0.22469 0.03526 0.33316 0.05992 0.23647 0.03346 0.39094 0.05236c0.15448 0.0189 0.33543 0.04787 0.5199 0.09704 0.18446 0.04917 0.3724 0.11847 0.56314 0.1966 0.19074 0.07813 0.38429 0.16508 0.57223 0.27284 0.18794 0.10777 0.37028 0.23628 0.5177 0.37432 0.14741 0.13803 0.29426 0.33042 0.36049 0.41873 0.0662 0.08831 0.0655 0.08662 0.0874 0.12418 0.0218 0.03756 0.0646 0.11061 0.12915 0.13243 0.0646 0.02182 0.15037-0.0071 0.188-0.02341 0.0376-0.01635 0.0255-0.02065 0.0137-0.02486"/>
<path d="m128.69 73.676c0.16881-0.05006 0.33765-0.10012 0.44476-0.13175 0.10711-0.03163 0.15261-0.04486 0.22299-0.04134 0.0704 0.0035 0.16561 0.0237 0.30894 0.07019 0.14332 0.04649 0.33478 0.11926 0.52331 0.18694 0.18853 0.06768 0.38937 0.1354 0.54616 0.20695 0.1568 0.07155 0.27716 0.1494 0.39982 0.22754 0.12266 0.07814 0.2476 0.15658 0.34059 0.22444 0.093 0.06787 0.20568 0.17352 0.29513 0.15277 0.0895-0.02074 0.18177-0.14344 0.29553-0.2417 0.11376-0.09825 0.24888-0.17198 0.38629-0.23041 0.13741-0.05843 0.27704-0.10158 0.43632-0.1348 0.15929-0.03322 0.33814-0.05652 0.48204-0.04272 0.14389 0.0138 0.25272 0.0645 0.36126 0.11507"/>
<path d="m133.24 74.517c0.0955-0.09274 0.32942-0.31997 0.52615-0.44891 0.19672-0.12894 0.42531-0.22676 0.65771-0.29482 0.23239-0.06806 0.46851-0.10637 0.71869-0.07737 0.25018 0.02901 0.51463 0.12528 0.75048 0.25118 0.23584 0.1259 0.44323 0.28138 0.59513 0.44336 0.15189 0.16198 0.24841 0.33036 0.33896 0.52282 0.0906 0.19245 0.17519 0.40895 0.23059 0.60585s0.0816 0.37419 0.0967 0.48825c0.0151 0.11406 0.019 0.16479 0.0164 0.1831-3e-3 0.01831-0.012 4e-3 -0.0216-0.01059"/>
<path d="m129.61 74.777c-0.16833-0.05196-0.33698-0.10401-0.50648-0.11945-0.16951-0.01544-0.34076 6e-3 -0.50786 0.0572-0.16711 0.05121-0.33046 0.13229-0.47826 0.23767-0.1478 0.10538-0.27995 0.23502-0.40114 0.38636s-0.23177 0.32495-0.32879 0.53348c-0.097 0.20853-0.18067 0.4522-0.24004 0.63585-0.0594 0.18365-0.0944 0.30724-0.11457 0.42143-0.0201 0.11419-0.0253 0.21886-0.0284 0.30863-3e-3 0.08977-4e-3 0.16462 0.016 0.24172 0.0201 0.0771 0.0612 0.15637 0.10839 0.23324 0.0472 0.07687 0.10037 0.15122 0.17531 0.22786 0.075 0.07664 0.17187 0.15584 0.28384 0.22824 0.11196 0.0724 0.23875 0.13802 0.36992 0.20317 0.13118 0.06515 0.26653 0.12973 0.39981 0.19244 0.13327 0.0627 0.26443 0.12351 0.38594 0.19236 0.1215 0.06886 0.23337 0.1457 0.3379 0.23538 0.10454 0.08968 0.2018 0.19215 0.28205 0.27339 0.0802 0.08124 0.14226 0.14015 0.1956 0.19254 0.0533 0.05239 0.0977 0.09795 0.14518 0.14141 0.0475 0.04346 0.0983 0.08497 0.16131 0.1255 0.063 0.04054 0.13847 0.08024 0.24705 0.122 0.10857 0.04176 0.2496 0.08543 0.40288 0.10539 0.15329 0.01996 0.31847 0.01619 0.47997-0.0018 0.16149-0.01797 0.31934-0.0501 0.4687-0.09151s0.29052-0.09216 0.43711-0.17988c0.14659-0.08772 0.29883-0.21245 0.40258-0.3244s0.15902-0.21114 0.20154-0.31866c0.0425-0.10752 0.0722-0.22346 0.0952-0.33951 0.0229-0.11605 0.039-0.2323 0.0523-0.3345 0.0133-0.1022 0.0238-0.19044 0.0454-0.25584 0.0216-0.06541 0.054-0.10746 0.0651-0.1154 0.0112-0.0079 1e-3 0.01811-9e-3 0.04415"/>
</g>
<path d="m133.07 75.713c0.09-0.12606 0.17995-0.25214 0.32054-0.36112 0.1406-0.10898 0.33165-0.20075 0.54233-0.25664 0.21068-0.05589 0.44083-0.07592 0.65865-0.05179s0.42323 0.09229 0.59958 0.18446c0.17636 0.09218 0.32305 0.20776 0.45494 0.33408 0.13188 0.12632 0.24869 0.26309 0.3403 0.41058 0.0916 0.14749 0.21474 0.44038 0.28824 0.59307 0.0735 0.15269 0.12558 0.23254 0.17748 0.31208"/>
</g>
<path transform="translate(-.1134 -44.722)" d="m106.39 74.528c0.23801 0.28495 0.47578 0.56961 0.74071 0.79341 0.26494 0.2238 0.55696 0.38684 0.92175 0.5026 0.36479 0.11576 0.80232 0.18436 1.1903 0.18878 0.38801 0.0044 0.72657-0.05528 1.0438-0.17378 0.31721-0.1185 0.61319-0.2958 0.83556-0.5266 0.22236-0.23079 0.47673-0.7168 0.57574-1.0455 0.099-0.32868 0.0954-0.601 0.044-0.94426-0.0514-0.34326-0.15017-0.75582-0.2358-1.126-0.0856-0.3702-0.1579-0.69718-0.27306-1.0017s-0.27378-0.58734-0.42123-0.79319c-0.14746-0.20584-0.28407-0.33503-0.33905-0.37553-0.055-0.0405-0.0283 0.0076-2e-3 0.05539" fill="hsl(30, 81%, 87%)" stroke="hsl(30, 81%, 49%)"/>
<path transform="translate(-.1134 -44.722)" d="m110.75 75.989c-0.22277 0.29584-0.4455 0.59164-0.67809 0.82191s-0.47513 0.3951-0.7152 0.57553-0.47766 0.37644-0.75213 0.54904-0.5859 0.3218-0.89745 0.47107" fill="hsl(30, 81%, 87%)" stroke="hsl(30, 81%, 49%)"/>
<path transform="translate(-.1134 -44.722)" d="m85.359 83.355c2.6945 2.8648 1.7648 6.6942 1.7648 6.6942" fill="hsl(30, 81%, 87%)" stroke="hsl(30, 81%, 49%)"/>
<path transform="translate(-.1134 -44.722)" d="m93.36 84.134c-0.9444 0.9863-1.8888 1.9726-2.5407 3.2067-0.65189 1.2341-1.0112 2.7157-1.1939 3.4579-0.1827 0.74212-0.18849 0.74472-0.19439 0.74737" fill="hsl(30, 81%, 87%)" stroke="hsl(30, 81%, 49%)"/>
<path transform="translate(-.1134 -44.722)" d="m107.71 78.406c0.4327 0.44606 0.86515 0.89185 1.211 1.3322s0.60523 0.8751 0.91213 1.3553c0.30689 0.48023 0.66128 1.0059 0.9993 1.7548 0.33801 0.74887 0.65973 1.7209 0.86461 2.5553 0.20489 0.83438 0.29299 1.5311 0.36332 2.3584 0.0703 0.82726 0.12269 1.7815-0.0184 2.5423-0.1411 0.76079-0.4757 1.3265-0.89196 1.9012-0.41626 0.57465-0.91418 1.1582-1.332 1.582-0.41786 0.42373-0.75517 0.68725-1.0032 0.88327s-0.40636 0.32431-0.56478 0.45264" fill="hsl(30, 81%, 87%)" stroke="hsl(30, 81%, 49%)"/>
<path transform="translate(-.1134 -44.722)" d="m110.47 70.082c-0.22872-0.48806-0.4576-0.97644-0.68137-1.4237-0.22378-0.44729-0.44467-0.85758-0.72582-1.2043-0.28114-0.34667-0.62312-0.63117-1.0032-0.8744-0.38009-0.24323-0.79796-0.44482-1.3013-0.61874-0.5033-0.17392-1.092-0.32008-1.6964-0.4165s-1.2246-0.14304-1.8494-0.16038c-0.62475-0.01734-1.254-0.0054-1.9127 0.0299-0.65871 0.03527-1.3468 0.09386-1.9247 0.19948-0.57795 0.10562-1.0482 0.25912-1.505 0.44372s-0.90126 0.40068-1.3188 0.6485c-0.41752 0.24782-0.80682 0.52648-1.1415 0.91715-0.33465 0.39067-0.61393 0.89277-0.83933 1.3959-0.2254 0.5031-0.39689 1.0071-0.51273 1.5014-0.11584 0.49428-0.17603 0.97874-0.20806 1.474-0.03203 0.49528-0.03642 1.0676-0.0091 1.5433 0.02732 0.47568 0.08606 0.88781 0.20194 1.2722 0.11588 0.38437 0.28877 0.74095 0.4673 1.0446 0.17853 0.30366 0.36263 0.5544 0.53973 0.79096s0.3472 0.45896 0.60338 0.69855 0.59716 0.49555 0.96405 0.67505c0.36688 0.17951 0.75871 0.28216 1.1813 0.40999s0.8766 0.28106 1.3036 0.3916c0.42699 0.11054 0.82737 0.17858 1.1539 0.2501 0.32655 0.07153 0.57925 0.1465 0.71987 0.18014 0.14061 0.03364 0.16937 0.02606 0.19787 0.01854" fill="hsl(30, 81%, 87%)" stroke="hsl(30, 81%, 49%)"/>
<path transform="translate(-.1134 -44.722)" d="m67.038 84.308c0.22574-0.17377 0.45144-0.34751 0.6621-0.49984 0.21066-0.15233 0.39146-0.27334 0.63449-0.43238 0.24303-0.15904 0.5409-0.35115 0.84431-0.48642 0.30342-0.13526 0.61229-0.21367 0.95335-0.26174 0.34107-0.04808 0.71625-0.06596 1.0024-0.05134 0.28614 0.01462 0.48463 0.06171 0.6574 0.11075 0.17277 0.04904 0.32001 0.10005 0.49521 0.16722 0.1752 0.06717 0.3788 0.15066 0.59553 0.24856 0.21673 0.0979 0.44582 0.2098 0.68697 0.32824 0.24115 0.11844 0.49384 0.24319 0.72237 0.3979 0.22853 0.15472 0.43292 0.3393 0.63521 0.53115 0.20229 0.19185 0.40249 0.39092 0.56728 0.61681 0.1648 0.22589 0.29429 0.47851 0.40068 0.70879 0.10638 0.23028 0.18968 0.43817 0.28138 0.66308 0.0917 0.22492 0.1918 0.46683 0.29493 0.67155 0.10313 0.20472 0.20922 0.37223 0.31402 0.51132 0.1048 0.13909 0.20825 0.2498 0.3095 0.34575 0.10125 0.09596 0.2002 0.17714 0.32041 0.25267 0.12021 0.07553 0.2616 0.14546 0.4173 0.17806 0.1557 0.0326 0.43768 0.02503 0.62421-0.03218s0.40641-0.219 0.59544-0.37536c0.18902-0.15636 0.38352-0.33403 0.57668-0.51309 0.19316-0.17906 0.3853-0.3598 0.53712-0.50066 0.15182-0.14086 0.26346-0.24197 0.38124-0.3519 0.11777-0.10994 0.24167-0.22869 0.51938-0.50033 0.27771-0.27164 0.70923-0.69616 1.0532-1.0071 0.34392-0.31095 0.60142-0.50924 0.88321-0.68282 0.28178-0.17358 0.58837-0.32288 0.91371-0.45842 0.32534-0.13553 0.95538-0.3585 1.3006-0.46971 0.34519-0.11121 0.54819-0.16121 0.82181-0.21857 0.27362-0.05736 0.61973-0.12244 0.9858-0.16902 0.36607-0.04657 0.75464-0.07496 1.1232-0.08597 0.36857-0.011 0.71785-0.0047 1.1067 0.02776s0.81724 0.09105 1.2169 0.15974c0.3997 0.06868 0.77069 0.14743 1.1364 0.25109 0.36575 0.10366 0.72624 0.23218 1.164 0.41641 0.43772 0.18423 0.95316 0.42436 1.3106 0.60545 0.35744 0.18109 0.81904 0.46338 1.1494 0.66539" fill="none" stroke="hsl(30, 81%, 49%)"/>
<path transform="translate(-.1134 -44.722)" d="m108.06 84.293c0.1168-0.0023 0.23335-0.0047 0.36141-0.02508 0.12807-0.02041 0.2677-0.05883 0.4374-0.11127 0.16969-0.05244 0.36962-0.11893 0.57123-0.19022 0.20161-0.07129 0.40562-0.14764 0.57832-0.22702 0.1727-0.07938 0.31443-0.1619 0.45038-0.2534s0.26615-0.19198 0.34784-0.26108c0.0817-0.0691 0.11497-0.10692 0.14827-0.14476" fill="none" stroke="hsl(30, 81%, 49%)"/>
<path transform="translate(-.1134 -44.722)" d="m67.001 84.712c-0.0087 0.09467-0.01734 0.18912-0.02315 0.26698-0.0058 0.07785-0.0088 0.13911 0.03145 0.20871 0.04023 0.0696 0.1234 0.14758 0.20411 0.19861 0.08071 0.05104 0.15889 0.0753 0.24959 0.09554 0.09069 0.02024 0.1939 0.03651 0.29102 0.04512 0.09712 0.0086 0.18869 0.0096 0.29882 0.0075 0.11013-0.0021 0.23907-0.0072 0.36527-0.01635 0.12621-0.0091 0.24969-0.02227 0.35435-0.03529s0.19059-0.02593 0.29357-0.03057c0.10298-0.0046 0.22348-0.0011 0.34575 0.0046 0.12227 0.0057 0.2465 0.01349 0.38115 0.0272 0.13464 0.01371 0.27966 0.03331 0.40814 0.07866 0.12848 0.04535 0.24077 0.11651 0.34889 0.2014 0.10812 0.08488 0.21233 0.18358 0.30572 0.29653 0.09339 0.11295 0.17605 0.24015 0.2722 0.38471 0.09615 0.14456 0.20578 0.30649 0.29459 0.46319 0.08881 0.1567 0.15687 0.30817 0.2142 0.48377 0.05732 0.1756 0.10391 0.37502 0.15236 0.62035 0.04845 0.24533 0.09895 0.53763 0.12446 0.82175 0.02551 0.28412 0.02618 0.56195 0.07128 0.9129s0.13482 0.77679 0.23831 1.1528 0.22136 0.70442 0.36316 0.98288c0.1418 0.27846 0.3077 0.50777 0.52121 0.77079 0.21351 0.26302 0.4746 0.55975 0.73503 0.80921 0.26042 0.24946 0.52011 0.45169 0.82521 0.62926 0.3051 0.17757 0.65601 0.33076 0.9798 0.43706 0.32378 0.10631 0.58416 0.15858 0.87392 0.16168 0.28976 0.0031 0.5907-0.04654 0.90386-0.10505 0.31316-0.05852 0.63878-0.12595 0.93463-0.18231 0.29585-0.05636 0.44908-0.08244 0.78475-0.21776 0.33567-0.13532 0.79849-0.37081 1.2053-0.57048 0.40686-0.19968 0.75682-0.36314 1.1018-0.5459 0.34501-0.18277 0.68603-0.38549 1.0238-0.59438 0.33773-0.20889 0.68991-0.43532 1.015-0.66148s0.63168-0.45752 0.98316-0.6638c0.35148-0.20628 0.74895-0.38799 1.1305-0.5228 0.38152-0.13482 0.74762-0.22302 1.0702-0.25593 0.32254-0.03292 0.60142-0.01062 0.85227 0.05116s0.47357 0.1629 0.71288 0.29858c0.23931 0.13568 0.49521 0.30585 0.7075 0.45786 0.2123 0.15201 0.33697 0.25091 0.4941 0.40463s0.32474 0.34474 0.51252 0.51684c0.18778 0.1721 0.39566 0.32534 0.60754 0.48466 0.21188 0.15932 0.4286 0.32537 0.65118 0.48384s0.45208 0.31016 0.71183 0.49964c0.25975 0.18948 0.5505 0.41729 0.846 0.62442 0.29551 0.20714 0.59595 0.39379 1.0558 0.61981 0.45986 0.22602 1.0791 0.49145 1.5637 0.67581 0.48462 0.18436 0.83461 0.28768 1.1682 0.35731 0.33364 0.06963 0.65093 0.10563 0.90869 0.12478 0.25776 0.01915 0.45598 0.02149 0.90013 0.03879s1.1342 0.04957 1.8586 0.10729c0.72442 0.05772 1.4832 0.14088 2.2392 0.17866 0.75597 0.03778 1.5092 0.03021 2.2189-0.04163 0.70977-0.07185 1.3761-0.20792 1.9626-0.40699 0.5864-0.19906 1.0929-0.46108 1.5993-0.72305" fill="none" stroke="hsl(30, 81%, 49%)"/>
<path transform="translate(-.1134 -44.722)" d="m101.86 86.339c-0.013 0.06835-0.0259 0.13649-0.0252 0.23743 6.5e-4 0.10094 0.0148 0.2346 0.0449 0.37048 0.0301 0.13588 0.0757 0.27311 0.13145 0.39942 0.0557 0.12631 0.12129 0.24122 0.20208 0.3583 0.0808 0.11709 0.1769 0.23661 0.27702 0.34561 0.10012 0.10901 0.20433 0.2077 0.35531 0.34425 0.15099 0.13655 0.3483 0.31059 0.56092 0.47454 0.21263 0.16395 0.44031 0.31763 0.69235 0.47136 0.25205 0.15373 0.52804 0.30731 0.85455 0.44941 0.3265 0.1421 0.70302 0.27258 1.0738 0.39486 0.37073 0.12228 0.73551 0.23632 1.0165 0.31749 0.28098 0.08117 0.47813 0.12948 0.81149 0.19955 0.33336 0.07007 0.80225 0.16177 1.2874 0.22635 0.48513 0.06458 0.98589 0.10199 1.3902 0.07344 0.40434-0.02855 0.7122-0.12299 0.94019-0.219 0.22799-0.09601 0.37478-0.19265 0.52221-0.28972" fill="hsl(30, 81%, 87%)" stroke="hsl(30, 81%, 49%)"/>
<path transform="translate(-.1134 -44.722)" d="m98.501 87.579c-0.04164 0.07852-0.08321 0.15691-0.11404 0.26029-0.03083 0.10338-0.03966 0.15963-0.04787 0.30265-0.0082 0.14302-0.01022 0.33678-0.0025 0.52356 0.0077 0.18678 0.02494 0.36544 0.06757 0.56879s0.11052 0.43076 0.19526 0.64623c0.08473 0.21547 0.18623 0.41895 0.29543 0.64041 0.1092 0.22145 0.22609 0.46085 0.36542 0.69017 0.13933 0.22932 0.30103 0.44855 0.44769 0.6303 0.14666 0.18174 0.27826 0.32602 0.44731 0.51241 0.16904 0.18639 0.37596 0.41537 0.54788 0.59857 0.17191 0.1832 0.30902 0.32085 0.46642 0.47654s0.33509 0.32943 0.55153 0.50289 0.46913 0.34503 0.70102 0.51655c0.23188 0.17153 0.44175 0.34214 0.70657 0.52076s0.58456 0.36526 0.84566 0.5232c0.26109 0.15793 0.46353 0.28712 0.66177 0.38508 0.19824 0.09796 0.39226 0.16479 0.58597 0.2315" fill="hsl(30, 81%, 87%)" stroke="hsl(30, 81%, 49%)"/>
<path transform="translate(-.1134 -44.722)" d="m96.26 86.091c-0.08722 0.07234-0.1744 0.14466-0.2562 0.22327-0.0818 0.07862-0.15816 0.1635-0.22331 0.24352-0.06515 0.08003-0.11912 0.15522-0.2001 0.26451-0.08098 0.10929-0.18897 0.25267-0.29611 0.43871s-0.21372 0.41539-0.29756 0.64308c-0.08384 0.22769-0.14533 0.45485-0.19729 0.71125-0.05196 0.2564-0.09453 0.5424-0.12447 0.84601-0.02994 0.30361-0.04727 0.62479-0.06089 0.93174-0.01361 0.30695-0.02351 0.59962-0.02054 0.91503 3e-3 0.31542 0.01881 0.65352 0.04753 0.95246s0.0703 0.55865 0.11057 0.82439c0.04027 0.26574 0.0795 0.53924 0.13403 0.79985 0.05453 0.2606 0.1242 0.50832 0.2141 0.71413 0.0899 0.20581 0.19977 0.36929 0.2911 0.50226 0.09132 0.13297 0.16409 0.23545 0.23664 0.3376" fill="hsl(30, 81%, 87%)" stroke="hsl(30, 81%, 49%)"/>
<path transform="translate(-.1134 -44.722)" d="m68.516 83.355c0.12257 0.05483 0.24433 0.10929 0.35759 0.19294 0.11326 0.08365 0.21806 0.19647 0.30261 0.31658 0.08455 0.12011 0.14922 0.2479 0.19596 0.36762 0.04674 0.11972 0.07571 0.23155 0.09784 0.36986s0.03744 0.30269 0.0323 0.42298c-0.0051 0.12029-0.03059 0.19608-0.05604 0.27189" fill="hsl(30, 81%, 87%)" stroke="hsl(30, 81%, 49%)"/>
<path transform="translate(-.1134 -44.722)" d="m71.624 82.703c0.06789 0.11984 0.13085 0.23098 0.18032 0.34584 0.04946 0.11486 0.0831 0.2291 0.10795 0.36166 0.02485 0.13256 0.04094 0.28332 0.04663 0.42941 0.0057 0.1461 9.8e-4 0.28755-0.01659 0.45589s-0.04802 0.36376-0.10121 0.52446c-0.05319 0.1607-0.12872 0.2862-0.21847 0.4112-0.08976 0.125-0.19334 0.24893-0.2876 0.33428-0.09426 0.08536-0.17861 0.13174-0.25924 0.17116-0.08064 0.03942-0.1574 0.07173-0.23423 0.10408" fill="hsl(30, 81%, 87%)" stroke="hsl(30, 81%, 49%)"/>
<path transform="translate(-.1134 -44.722)" d="m80.579 86.795c0.19506 0.04647 0.38977 0.09286 0.58804 0.16907 0.19826 0.07621 0.40039 0.18233 0.59433 0.30308 0.19395 0.12074 0.38119 0.25708 0.55033 0.40332 0.16914 0.14624 0.32134 0.3033 0.46115 0.46369 0.13981 0.16039 0.26751 0.32432 0.40359 0.54529 0.13609 0.22098 0.28061 0.49895 0.38005 0.78049 0.09944 0.28154 0.15388 0.56665 0.18925 0.82546 0.03537 0.25881 0.0517 0.49135 0.05367 0.70806 2e-3 0.21671-0.0104 0.41763-0.02275 0.61828" fill="hsl(30, 81%, 87%)" stroke="hsl(30, 81%, 49%)"/>
<path transform="translate(-.1134 -44.722)" d="m78.303 88.328c0.05337 0.11192 0.10657 0.2235 0.17446 0.36652 0.06789 0.14302 0.15064 0.31783 0.22808 0.48552s0.14974 0.32859 0.2251 0.49085 0.15382 0.32599 0.22322 0.47978c0.06941 0.1538 0.1298 0.2977 0.19141 0.45395 0.06162 0.15625 0.12448 0.32487 0.17271 0.47833 0.04824 0.15346 0.0819 0.29179 0.11196 0.43991 0.03007 0.14812 0.05656 0.30602 0.07834 0.4615 0.02178 0.15547 0.03884 0.3085 0.04562 0.46785 0.0068 0.15936 0.0033 0.32419-0.01242 0.47518-0.01573 0.15099-0.0437 0.28776-0.08709 0.40395-0.04339 0.1162-0.1014 0.21066-0.15228 0.29354-0.05088 0.08288-0.09365 0.15257-0.14851 0.22407-0.05485 0.0715-0.12181 0.14471-0.18861 0.21775" fill="hsl(30, 81%, 87%)" stroke="hsl(30, 81%, 49%)"/>
<path transform="translate(-.1134 -44.722)" d="m76.92 87.668c-0.0074 0.13054-0.01488 0.26085-0.04634 0.41841-0.03145 0.15756-0.08689 0.34242-0.14629 0.50845-0.0594 0.16604-0.12275 0.31326-0.19031 0.45904s-0.13933 0.29012-0.21679 0.42954-0.16061 0.27395-0.26924 0.41601-0.24274 0.29169-0.37093 0.42843-0.25044 0.26057-0.39673 0.38835-0.31696 0.25976-0.47942 0.37324c-0.16246 0.11348-0.31688 0.20858-0.48126 0.29988-0.16438 0.09129-0.33897 0.17888-0.50665 0.24806-0.16768 0.06917-0.32846 0.11993-0.47689 0.16149-0.14843 0.04156-0.28415 0.07383-0.40467 0.09634-0.12052 0.02251-0.22567 0.03521-0.33108 0.04793" fill="hsl(30, 81%, 87%)" stroke="hsl(30, 81%, 49%)"/>
<path transform="translate(-.1134 -44.722)" d="m74.811 84.276c-0.01492 0.13566-0.02976 0.27064-0.07104 0.42945s-0.10923 0.34205-0.19765 0.50922c-0.08843 0.16717-0.19764 0.31897-0.31778 0.45993-0.12014 0.14096-0.2518 0.27173-0.40893 0.40229-0.15713 0.13056-0.341 0.26188-0.52151 0.39051-0.1805 0.12863-0.35877 0.25538-0.52457 0.35928-0.1658 0.1039-0.31947 0.1852-0.443 0.25243-0.12353 0.06724-0.21665 0.12027-0.31398 0.16784-0.09733 0.04757-0.19853 0.08949-0.30002 0.13154" fill="hsl(30, 81%, 87%)" stroke="hsl(30, 81%, 49%)"/>
<path transform="translate(-.1134 -44.722)" d="m101.47 83.389c-0.10877 0.16171-0.21791 0.32397-0.30728 0.5157-0.0894 0.19173-0.15916 0.41314-0.18709 0.62391-0.0279 0.21077-0.0141 0.41079 0.0263 0.585s0.10723 0.32254 0.22271 0.47407c0.11548 0.15152 0.27815 0.30503 0.45734 0.45269 0.1792 0.14766 0.3742 0.28887 0.56676 0.40935 0.19255 0.12048 0.38261 0.22026 0.58852 0.29908 0.20591 0.07881 0.42765 0.13672 0.66008 0.1759 0.23243 0.03918 0.47533 0.05967 0.72554 0.0621 0.25021 0.0024 0.50756-0.01317 0.73993-0.03791s0.43975-0.05859 0.66411-0.10996c0.22435-0.05136 0.46708-0.12061 0.70293-0.19167 0.23585-0.07106 0.4655-0.14411 0.68624-0.22987 0.22074-0.08576 0.43257-0.1842 0.59043-0.28198 0.15785-0.09777 0.26177-0.19486 0.35058-0.31242 0.0888-0.11756 0.16257-0.25565 0.2012-0.4135 0.0386-0.15785 0.0421-0.33559 0.0177-0.49593s-0.0769-0.30335-0.15456-0.4419c-0.0777-0.13856-0.18061-0.27265-0.35479-0.3692-0.17419-0.09655-0.41969-0.15536-0.66028-0.18969-0.24059-0.03433-0.47616-0.04413-0.66669-0.04933s-0.543-0.0066-0.74769 0.07325c-0.20468 0.07986-0.50813 0.3844-0.73994 0.61704" fill="hsl(30, 81%, 87%)" stroke="hsl(30, 81%, 49%)"/>
<path transform="translate(-.1134 -44.722)" d="m103 71.296c0.69487-0.32653 1.3896-0.65302 2.0742-0.58492 0.68455 0.0681 1.3587 0.5305 2.0325 0.9927" fill="none" stroke="hsl(30, 81%, 49%)"/>
<path d="m99.612 37.449c-0.11161 0.08059-0.22268 0.16078-0.32419 0.26217-0.10151 0.10139-0.19308 0.22367-0.27162 0.35056-0.07854 0.12689-0.14422 0.25873-0.18308 0.37408-0.03886 0.11535-0.05096 0.21376-0.05769 0.28873-0.0067 0.07497-0.0081 0.12622-0.0066 0.16036 0.0015 0.03414 0.0057 0.05104-0.07168 0.02453-0.07736-0.02651-0.23647-0.09621-0.37209-0.16434-0.13562-0.06813-0.24774-0.13474-0.32624-0.19806-0.0785-0.06332-0.12328-0.12345-0.13851-0.22027-0.01522-0.09682-6.23e-4 -0.23024 0.01036-0.33564 0.01099-0.10541 0.01835-0.18266 0.07456-0.30097 0.05621-0.11831 0.16112-0.2772 0.25505-0.39212 0.09393-0.11492 0.17743-0.18627 0.24945-0.24307 0.07202-0.0568 0.13292-0.09935 0.19376-0.14186" fill="#f0d488" stroke="#e3ad1c"/>
<path d="m101.06 34.546c-0.0899 0.15027-0.17869 0.29857-0.21651 0.36176-0.0378 0.06319 0.12714-0.21244 0.21651-0.36176" fill="hsl(30, 81%, 49%)" stroke="hsl(30, 81%, 49%)"/>
</g>
</g>
</svg>
