<?xml version="1.0" encoding="UTF-8" standalone="no"?>
<svg
   xmlns:dc="http://purl.org/dc/elements/1.1/"
   xmlns:cc="http://creativecommons.org/ns#"
   xmlns:rdf="http://www.w3.org/1999/02/22-rdf-syntax-ns#"
   xmlns:svg="http://www.w3.org/2000/svg"
   xmlns="http://www.w3.org/2000/svg"
   xmlns:sodipodi="http://sodipodi.sourceforge.net/DTD/sodipodi-0.dtd"
   xmlns:inkscape="http://www.inkscape.org/namespaces/inkscape"
   width="35.066837mm"
   height="31.383198mm"
   viewBox="0 0 35.066837 31.383198"
   version="1.1"
   id="svg8"
   inkscape:version="1.0.2 (e86c870879, 2021-01-15)"
   sodipodi:docname="bookworm_reading.svg">
  
  
  <g
     inkscape:label="Layer 1"
     inkscape:groupmode="layer"
     id="layer1"
     transform="translate(-98.655784,-105.22553)">

    <g
       id="g2411"
       transform="matrix(0.91405409,0,0,0.91405409,41.227475,12.855046)">
      <g
         id="g2237"
         transform="translate(45.359243,24.630753)">
        <path
           style="fill:#f6e0d3;stroke-width:0.264583px"
           d="m 49.861061,90.570682 c 0.108498,-0.108047 0.325494,-0.324138 0.591691,-0.578208 0.266197,-0.25407 0.5822,-0.546678 0.931502,-0.860113 0.349303,-0.313435 0.732189,-0.647962 1.07971,-1.026255 0.347522,-0.378294 0.659708,-0.800389 0.891427,-1.259075 0.231718,-0.458686 0.382853,-0.953665 0.492411,-1.41418 0.109558,-0.460516 0.177456,-0.886394 0.217732,-1.228803 0.04028,-0.34241 0.05284,-0.600044 -0.03732,-1.050816 -0.09016,-0.450771 -0.283526,-1.095202 -0.476685,-1.592911 -0.19316,-0.497709 -0.386354,-0.849247 -0.64041,-1.190736 -0.254057,-0.341489 -0.569044,-0.672865 -0.903635,-1.004575 -0.33459,-0.33171 -0.688778,-0.663717 -1.031413,-0.950706 -0.342635,-0.28699 -0.673723,-0.528908 -1.043661,-0.732761 -0.369937,-0.203853 -0.778721,-0.369541 -1.215171,-0.515096 -0.436451,-0.145556 -0.900535,-0.270926 -1.37374,-0.368284 -0.473205,-0.09736 -0.955488,-0.166657 -1.563447,-0.203846 -0.607959,-0.03719 -1.341536,-0.04223 -1.963881,-0.01735 -0.622345,0.02488 -1.13326,0.07968 -1.594793,0.178963 -0.461533,0.09928 -0.872724,0.242783 -1.280483,0.399341 -0.40776,0.156558 -0.811644,0.326026 -1.219068,0.533305 -0.407423,0.207278 -0.818308,0.452346 -1.188276,0.703416 -0.369969,0.25107 -0.698956,0.508108 -1.033724,0.79555 -0.334768,0.287442 -0.674643,0.604667 -0.953618,0.946178 -0.278976,0.341511 -0.496666,0.706907 -0.681881,0.994124 -0.185214,0.287217 -0.336264,0.493959 -0.454555,0.827571 -0.11829,0.333612 -0.20301,0.793003 -0.329017,1.253828 -0.126007,0.460825 -0.293301,0.923241 -0.407031,1.379992 -0.11373,0.456751 -0.17394,0.907922 -0.188612,1.312735 -0.01467,0.404812 0.01613,0.763278 0.09642,1.132449 0.08029,0.369171 0.209591,0.747864 0.33415,1.079757 0.12456,0.331892 0.244361,0.616899 0.446179,0.909368 0.201818,0.292469 0.484993,0.592014 0.806812,0.879707 0.321819,0.287694 0.681303,0.56277 1.002609,0.783883 0.321306,0.221114 0.604094,0.388062 0.906122,0.474597 0.302027,0.08653 0.623315,0.09283 0.868275,0.07642 0.244959,-0.01641 0.413652,-0.05547 0.52601,-0.03482 0.112358,0.02065 0.168357,0.100659 0.372433,0.141781 0.204077,0.04112 0.556166,0.04365 0.890077,0.06573 0.333912,0.02208 0.6496,0.06366 0.96842,0.06367 0.31882,1e-5 0.642196,-0.04166 0.879864,-0.06116 0.237668,-0.01951 0.390264,-0.01697 0.514461,0.07485 0.124197,0.09183 0.220096,0.272641 0.890388,0.32949 0.670291,0.05685 1.914847,-0.0099 2.892438,-0.176313 0.977591,-0.166383 1.68786,-0.432163 2.122176,-0.609193 0.434317,-0.177031 0.59251,-0.26523 0.671564,-0.309306 0.07905,-0.04408 0.07905,-0.04416 0.18755,-0.152203 z"
           id="path2233"
           inkscape:path-effect="#path-effect2239"
           inkscape:original-d="m 49.752562,90.678729 c 0.217262,-0.215828 0.434258,-0.431919 0.650988,-0.648277 0.315968,-0.291433 0.631656,-0.584382 0.947087,-0.876969 0.383164,-0.334277 0.766051,-0.668803 1.148681,-1.003602 0.312465,-0.421849 0.624652,-0.843944 0.936582,-1.266314 0.152167,-0.49493 0.30266,-0.990105 0.453594,-1.485556 0.06817,-0.425627 0.136062,-0.851506 0.203697,-1.277654 0.01357,-0.258673 0.02545,-0.51634 0.0378,-0.774909 C 53.938054,82.702462 53.74486,82.05798 53.5514,81.413846 53.358463,81.062562 53.165272,80.711023 52.971809,80.359215 52.657074,80.028089 52.342085,79.696714 52.026826,79.365064 51.67289,79.033308 51.318703,78.701301 50.964243,78.369024 50.633405,78.127362 50.302319,77.885442 49.97096,77.643256 c -0.408538,-0.165431 -0.817321,-0.331121 -1.226381,-0.497075 -0.463835,-0.125111 -0.92792,-0.250479 -1.392274,-0.376116 -0.482039,-0.06904 -0.964322,-0.138337 -1.446877,-0.207902 -0.733337,-0.0042 -1.46691,-0.0098 -2.200764,-0.01511 -0.510736,0.05571 -1.021718,0.109886 -1.532975,0.164433 -0.411337,0.145169 -0.82292,0.287546 -1.234778,0.430924 -0.403638,0.169741 -0.807522,0.339209 -1.211681,0.508416 -0.410636,0.245342 -0.821521,0.49041 -1.232678,0.735218 -0.328737,0.257313 -0.657725,0.51435 -0.986983,0.771128 -0.339937,0.318424 -0.680125,0.635313 -1.020585,0.952572 -0.217435,0.365675 -0.435126,0.73107 -0.653087,1.096211 -0.152337,0.209431 -0.30353,0.416068 -0.455695,0.623708 -0.08374,0.459546 -0.169132,0.918813 -0.254095,1.377825 -0.167034,0.462698 -0.33433,0.925113 -0.501891,1.387274 -0.05923,0.451358 -0.120134,0.902436 -0.180596,1.353257 0.03106,0.358745 0.06186,0.717211 0.0924,1.07542 0.129764,0.380166 0.259259,0.758793 0.388493,1.137793 0.119266,0.285033 0.239662,0.56979 0.359095,0.854289 0.283765,0.300784 0.567253,0.600033 0.850484,0.899649 0.360066,0.276215 0.719855,0.550892 1.079384,0.82594 0.283064,0.167222 0.565854,0.334168 0.848384,0.500856 0.321566,0.0066 0.642855,0.01286 0.963885,0.01889 0.168965,-0.0388 0.337658,-0.07786 0.506092,-0.117181 0.05626,0.08028 0.112263,0.160287 0.167997,0.240032 0.352364,0.0028 0.704453,0.0053 1.056283,0.0076 0.315965,0.04185 0.631653,0.08343 0.947084,0.124741 0.322265,-0.04132 0.645652,-0.0829 0.968084,-0.124741 0.152863,0.0028 0.305459,0.0053 0.45779,0.0076 0.09616,0.18108 0.192064,0.361889 0.287697,0.542435 1.244867,-0.06652 2.489423,-0.133297 3.733737,-0.200342 0.710766,-0.266232 1.421241,-0.531461 2.131465,-0.797587 0.158464,-0.08794 0.316658,-0.176138 0.474591,-0.264604 z" />
        <path
           style="fill:#f6e0d3;stroke-width:0.264583px"
           d="m 44.632269,94.377847 c 0.408025,0.03649 0.759412,0.200805 0.960634,0.575023 0.201221,0.374219 0.25257,0.95821 0.190183,1.232448 -0.06239,0.274239 -0.238779,0.238959 -0.442903,0.260953 -0.204124,0.02199 -0.435816,0.101374 -0.625218,0.194311 -0.189402,0.09294 -0.336396,0.199404 -0.427089,0.340648 -0.09069,0.141244 -0.124992,0.317013 -0.08112,0.492204 0.04388,0.175192 0.165671,0.3497 0.316554,0.518203 0.150882,0.168503 0.330776,0.331042 0.536237,0.493882 0.205461,0.162839 0.43645,0.326007 0.651358,0.452921 0.214909,0.126914 0.413702,0.217633 -0.359143,0.342922 -0.772846,0.125289 -2.517181,0.285308 -3.421007,0.411037 -0.903825,0.125728 -0.966819,0.217072 -1.076167,0.365001 -0.109349,0.14793 -0.264441,0.35165 -0.484148,0.50218 -0.219707,0.15052 -0.503893,0.24754 -0.82167,0.33071 -0.317777,0.0832 -0.669156,0.15247 -1.040112,0.16164 -0.370957,0.009 -0.761538,-0.0418 -1.156572,-0.13943 -0.395034,-0.0976 -0.79492,-0.24192 -1.151219,-0.39688 -0.356299,-0.15496 -0.669188,-0.32064 -1.066092,-0.44733 -0.396903,-0.126688 -0.877786,-0.214258 -1.277156,-0.253036 -0.39937,-0.03878 -0.717158,-0.0287 -0.485008,1.315456 0.232149,1.34415 1.014379,4.02195 1.42417,5.37994 0.40979,1.358 0.447674,1.39693 0.566989,1.4749 0.119314,0.078 0.321429,0.19609 0.606683,0.3353 0.285254,0.13922 0.654139,0.29987 1.060485,0.45073 0.406346,0.15087 0.85013,0.29199 1.379741,0.43059 0.52961,0.1386 1.144752,0.27465 1.759347,0.40506 0.614595,0.13041 1.228474,0.25515 1.835369,0.378 0.606896,0.12285 1.206775,0.24381 1.787757,0.32286 0.580982,0.079 1.143062,0.11622 1.784959,0.16504 0.641898,0.0488 1.363575,0.10931 2.044603,0.11528 0.681027,0.006 1.321598,-0.0426 1.914786,-0.12696 0.593188,-0.0844 1.139632,-0.20479 1.617679,-0.35375 0.478046,-0.14895 0.888461,-0.32671 1.258514,-0.57158 0.370053,-0.24488 0.700811,-0.55771 1.044836,-0.96971 0.344026,-0.412 0.70171,-0.92355 1.003751,-1.45777 0.302041,-0.53422 0.54843,-1.09113 0.741089,-1.64582 0.192659,-0.55469 0.33094,-1.10469 0.398863,-1.67166 0.06792,-0.56697 0.06512,-1.14972 0.04483,-1.70979 -0.02029,-0.56007 -0.05809,-1.09745 -0.12317,-1.60776 -0.06508,-0.510297 -0.157478,-0.993502 -0.278296,-1.47984 -0.120819,-0.486337 -0.269737,-0.974637 -0.438991,-1.447683 -0.169254,-0.473045 -0.357802,-0.928086 -0.536997,-1.350194 -0.179195,-0.422109 -0.348588,-0.810185 -0.568927,-1.234269 -0.220338,-0.424085 -0.492204,-0.885078 -0.760298,-1.327978 -0.268094,-0.442901 -0.532685,-0.868147 -0.781722,-1.243746 -0.249038,-0.375599 -0.483128,-0.702354 -0.699748,-0.961308 -0.21662,-0.258955 -0.416114,-0.450473 -0.6282,-0.630794 -0.212086,-0.180321 -0.436777,-0.349398 -0.714774,-0.501442 -0.277998,-0.152044 -0.608865,-0.286773 -1.621776,-0.179521 -1.012911,0.107252 -2.709045,0.457064 -3.720918,0.702131 -1.011873,0.245067 -1.340161,0.385555 -1.461953,0.554587 -0.121793,0.169033 -0.0371,0.366219 0.04547,0.644996 0.08257,0.278778 0.163062,0.639131 0.194868,0.939931 0.03181,0.3008 0.01501,0.542086 -0.0359,0.793162 -0.05091,0.251077 -0.135876,0.512013 0.05404,0.596622 0.189916,0.08461 0.654466,-0.0069 1.062491,0.02958 z"
           id="path2235"
           inkscape:path-effect="#path-effect2241"
           inkscape:original-d="m 44.688589,94.249877 c 0.351651,0.164578 0.703038,0.328891 1.054161,0.492939 0.05161,0.584252 0.102962,1.168243 0.154046,1.751961 -0.176136,-0.03502 -0.352531,-0.07029 -0.529191,-0.105841 -0.231436,0.07965 -0.463129,0.159028 -0.695089,0.238143 -0.146736,0.106739 -0.29373,0.213207 -0.440992,0.319413 -0.03404,0.176041 -0.06834,0.351809 -0.102899,0.527317 0.122065,0.174779 0.243861,0.349287 0.365395,0.523537 0.180163,0.162808 0.360058,0.325347 0.539689,0.487624 0.231267,0.163439 0.462256,0.326607 0.692989,0.489516 0.199064,0.09099 0.397859,0.181706 0.596389,0.272161 -1.744141,0.16029 -3.488476,0.32031 -5.233112,0.480068 -0.06274,0.09162 -0.125732,0.182965 -0.188997,0.274055 -0.155136,0.20502 -0.310531,0.40851 -0.46619,0.61236 -0.283938,0.0973 -0.568127,0.19431 -0.852588,0.29106 -0.351137,0.0696 -0.702522,0.13887 -1.054182,0.20791 -0.390338,-0.0508 -0.780923,-0.1018 -1.171779,-0.15309 -0.399439,-0.14338 -0.799124,-0.28828 -1.199081,-0.43282 -0.312637,-0.16543 -0.625525,-0.33112 -0.938684,-0.49707 -0.480636,-0.08731 -0.961519,-0.174881 -1.442677,-0.262715 -0.317535,0.01035 -0.635323,0.02043 -0.953384,0.03024 0.782524,2.678165 1.564754,5.355965 2.346732,8.033545 0.03708,0.0388 0.0753,0.0774 0.112554,0.11565 0.201166,0.11807 0.403458,0.23588 0.60479,0.35343 0.369168,0.16092 0.738053,0.32157 1.106683,0.48196 0.444066,0.14138 0.887849,0.2825 1.331378,0.42336 0.615567,0.13698 1.230842,0.27243 1.845869,0.40825 0.614166,0.125 1.228045,0.24974 1.841669,0.37422 0.600165,0.12123 1.200044,0.24219 1.799669,0.36288 0.562367,0.0374 1.124445,0.0746 1.686272,0.11152 0.721968,0.0607 1.443641,0.12122 2.165064,0.18144 0.640768,-0.047 1.281242,-0.0968 1.921468,-0.14554 0.546465,-0.1188 1.092644,-0.24039 1.63857,-0.36099 0.410466,-0.17677 0.82065,-0.35506 1.230579,-0.53298 0.329965,-0.31223 0.661054,-0.62471 0.991185,-0.93746 0.357965,-0.51131 0.71565,-1.02286 1.073081,-1.53469 0.246666,-0.55668 0.493057,-1.11359 0.739188,-1.67078 0.141666,-0.55163 0.27746,-1.10225 0.415793,-1.65377 -0.0026,-0.5825 -0.0053,-1.16525 -0.0084,-1.74827 -0.03753,-0.53714 -0.07534,-1.07452 -0.113398,-1.61219 -0.09214,-0.482956 -0.184531,-0.966162 -0.277196,-1.44964 -0.148836,-0.489262 -0.297929,-0.977509 -0.447291,-1.466657 -0.188736,-0.457131 -0.37773,-0.911987 -0.566992,-1.368375 -0.169135,-0.387829 -0.338529,-0.775904 -0.50819,-1.164254 -0.271336,-0.45965 -0.542928,-0.920805 -0.814787,-1.381606 -0.264335,-0.424998 -0.528926,-0.850244 -0.793787,-1.275763 -0.233535,-0.325456 -0.467329,-0.652423 -0.701387,-0.979032 -0.199236,-0.19126 -0.39873,-0.382778 -0.59849,-0.574564 -0.224438,-0.16882 -0.449128,-0.337897 -0.67409,-0.507243 -0.330837,-0.135189 -0.661924,-0.269378 -0.993282,-0.404464 -1.694442,0.349295 -3.39048,0.699572 -5.086115,1.048962 -0.328038,0.140758 -0.656325,0.281247 -0.984885,0.421473 0.08497,0.197462 0.169661,0.39465 0.254095,0.591577 0.08077,0.360638 0.161264,0.720992 0.241496,1.081093 -0.01654,0.241562 -0.03334,0.482848 -0.0504,0.723879 -0.08471,0.261206 -0.16968,0.522142 -0.254917,0.782816 0.464814,-0.09125 0.929363,-0.182772 1.393648,-0.274555 z"
           sodipodi:nodetypes="sccccccccccccccccccccccccccccccccccccccccccccccccccccccss" />
      </g>
      <path
         style="fill:#8ff5f5;stroke-width:0.264583px"
         d="m 86.791954,120.44857 c 0.126291,-0.0464 0.378725,-0.13901 0.643071,-0.2296 0.264345,-0.0906 0.541471,-0.17938 0.820146,-0.26469 0.278674,-0.0853 0.559315,-0.16727 0.824583,-0.27397 0.265268,-0.10669 0.515217,-0.23811 0.732996,-0.35884 0.21778,-0.12072 0.403387,-0.23075 0.543503,-0.30315 0.140116,-0.0724 0.234633,-0.10713 0.314088,-0.0617 0.07946,0.0454 0.143801,0.17058 0.198845,0.33008 0.05504,0.1595 0.101275,0.35503 0.14602,0.54392 0.04474,0.1889 0.0884,0.37286 0.126461,0.52567 0.03806,0.15282 0.07084,0.27574 0.102325,0.39333 0.03149,0.1176 0.06157,0.22944 -0.03634,0.28277 -0.09791,0.0533 -0.327077,0.048 -0.554059,0.0709 -0.226983,0.0229 -0.453178,0.0742 -0.611838,0.11492 -0.158659,0.0408 -0.249732,0.0711 -0.320307,0.17477 -0.07058,0.10371 -0.12068,0.28142 -0.138957,0.44675 -0.01828,0.16533 -0.0049,0.31858 0.0711,0.47724 0.07602,0.15867 0.215733,0.32424 0.37994,0.48625 0.164208,0.16201 0.354067,0.32174 0.555599,0.46616 0.201532,0.14443 0.415714,0.27428 0.594542,0.3692 0.178827,0.0949 0.322088,0.15494 0.405111,0.24546 0.08302,0.0905 0.105789,0.21124 0.07779,0.31266 -0.028,0.10143 -0.106694,0.18384 -0.310033,0.26934 -0.203338,0.0855 -0.531498,0.17415 -0.849775,0.26926 -0.318278,0.0951 -0.626633,0.19668 -0.915921,0.29275 -0.289288,0.0961 -0.558594,0.18636 -0.815859,0.27059 -0.257265,0.0842 -0.504483,0.16301 -0.720175,0.16921 -0.215691,0.006 -0.402363,-0.0604 -0.61769,-0.18862 -0.215327,-0.12825 -0.459833,-0.31846 -0.685459,-0.53526 -0.225626,-0.2168 -0.432728,-0.46072 -0.632194,-0.68436 -0.199466,-0.22364 -0.391507,-0.42722 -0.577105,-0.60187 -0.185597,-0.17465 -0.364772,-0.32032 -0.46762,-0.41711 -0.102849,-0.0968 -0.128924,-0.14416 -0.05265,-0.16964 0.07627,-0.0255 0.254966,-0.0285 0.399948,-0.0693 0.144982,-0.0408 0.256223,-0.11907 0.320512,-0.25437 0.06429,-0.13529 0.08165,-0.32862 0.04757,-0.52972 -0.03408,-0.2011 -0.119706,-0.41046 -0.249217,-0.60905 -0.129511,-0.19859 -0.303461,-0.38682 -0.473545,-0.50115 -0.170084,-0.11433 -0.337197,-0.15494 -0.476839,-0.16347 -0.139641,-0.009 -0.251997,0.0151 -0.329253,-0.10995 -0.07726,-0.12503 -0.119394,-0.39988 -0.158004,-0.66427 -0.03861,-0.2644 -0.07375,-0.51877 -0.10001,-0.76045 -0.02626,-0.24168 -0.04355,-0.46976 -0.06112,-0.68228 -0.01757,-0.21251 -0.03539,-0.40893 -0.02378,-0.53068 0.01161,-0.12174 0.0527,-0.16853 0.1444,-0.11182 0.0917,0.0567 0.233754,0.21664 0.396101,0.40241 0.162347,0.18577 0.344986,0.39737 0.530602,0.60741 0.185617,0.21004 0.374194,0.41853 0.545835,0.6162 0.17164,0.19767 0.326785,0.38503 0.455219,0.54875 0.128433,0.16372 0.23039,0.30405 0.306409,0.3958 0.07602,0.0918 0.126003,0.13495 0.183047,0.13347 0.05705,-0.001 0.121398,-0.0474 0.153547,-0.0703 0.03215,-0.0229 0.03215,-0.0233 0.158441,-0.0697 z"
         id="path2243"
         inkscape:path-effect="#path-effect2245"
         inkscape:original-d="m 86.665664,120.49493 c 0.252696,-0.0924 0.50513,-0.18506 0.757299,-0.27798 0.27646,-0.0884 0.553635,-0.17704 0.830059,-0.26596 0.280916,-0.0817 0.561556,-0.16367 0.841938,-0.2459 0.250227,-0.13116 0.500179,-0.26257 0.749874,-0.39426 0.185881,-0.10977 0.371488,-0.2198 0.556837,-0.3301 0.09481,-0.0345 0.189341,-0.0692 0.283615,-0.10424 0.06461,0.12545 0.128955,0.25063 0.193037,0.37554 0.0463,0.19405 0.09233,0.38962 0.138097,0.58403 0.04382,0.18336 0.08738,0.36734 0.13067,0.55062 0.03293,0.12232 0.0656,0.24527 0.098,0.36752 0.03046,0.11297 0.06065,0.22478 0.09058,0.33678 -0.225938,-0.005 -0.455104,-0.0104 -0.683053,-0.016 -0.225939,0.0515 -0.452134,0.10273 -0.678598,0.15369 -0.09081,0.0306 -0.181883,0.0609 -0.273222,0.0909 -0.04973,0.17713 -0.09972,0.35487 -0.149974,0.53191 0.01363,0.15351 0.02699,0.30676 0.04009,0.45974 0.138361,0.16465 0.278434,0.32992 0.417256,0.49448 0.189346,0.15975 0.37941,0.31923 0.568717,0.47845 0.2136,0.1299 0.427916,0.25953 0.641477,0.38891 0.144301,0.06 0.287345,0.12054 0.43062,0.18042 0.02304,0.12099 0.0458,0.24171 0.0683,0.36217 -0.07843,0.0827 -0.157133,0.1651 -0.236098,0.24725 -0.327903,0.0889 -0.656061,0.17755 -0.984488,0.26594 -0.308105,0.10184 -0.616463,0.2034 -0.925092,0.30471 -0.269994,0.0907 -0.53925,0.18113 -0.80927,0.2713 -0.244253,0.0791 -0.491734,0.15707 -0.737995,0.23521 -0.185351,-0.0657 -0.371951,-0.13248 -0.558323,-0.19913 -0.244253,-0.18996 -0.488762,-0.38017 -0.733539,-0.57066 -0.206135,-0.24341 -0.413521,-0.48709 -0.620682,-0.73103 -0.191786,-0.20333 -0.383828,-0.40691 -0.576141,-0.61076 -0.178916,-0.14541 -0.358092,-0.29108 -0.537532,-0.43702 -0.02598,-0.0478 -0.0522,-0.0951 -0.0787,-0.143 0.178951,-0.002 0.35763,-0.006 0.536049,-0.009 0.112128,-0.0777 0.222999,-0.15654 0.334102,-0.23521 0.0176,-0.19219 0.03491,-0.38552 0.05197,-0.57868 -0.08537,-0.20912 -0.170995,-0.41849 -0.25689,-0.62813 -0.173471,-0.18729 -0.347202,-0.37572 -0.5212,-0.56398 -0.166542,-0.0389 -0.333343,-0.0808 -0.500409,-0.12162 -0.112096,0.0239 -0.224451,0.0475 -0.337074,0.0708 -0.04181,-0.27371 -0.08388,-0.54857 -0.126217,-0.82325 -0.03488,-0.25411 -0.07002,-0.50848 -0.105425,-0.76311 -0.01707,-0.22872 -0.03439,-0.4568 -0.05197,-0.6856 -0.01804,-0.19619 -0.03537,-0.39265 -0.05346,-0.58937 0.04135,-0.0465 0.08243,-0.0933 0.123246,-0.14033 0.142324,0.1602 0.284376,0.32013 0.426167,0.47979 0.182911,0.21187 0.365548,0.42347 0.547928,0.63481 0.188849,0.20875 0.377428,0.41723 0.565745,0.62546 0.155194,0.18692 0.310116,0.37447 0.464775,0.5613 0.10223,0.1406 0.20419,0.28092 0.305888,0.42099 0.05026,0.0435 0.100248,0.0867 0.149976,0.12963 0.06461,-0.0456 0.128955,-0.0915 0.193037,-0.13765 z" />
      <g
         id="g2251"
         style="stroke:#00a8a8;stroke-width:0.45;stroke-miterlimit:5.33"
         transform="translate(45.359243,24.630753)">
        <path
           style="fill:none"
           d="m 46.243479,99.242528 c 0.05123,0.09468 0.153611,0.283875 0.0028,0.428144 -0.15083,0.144268 -0.554882,0.243781 -0.978056,0.366028 -0.423173,0.12224 -0.865438,0.26721 -1.418289,0.46194 -0.552851,0.19473 -1.216258,0.43922 -1.598491,0.31275 -0.382233,-0.12646 -0.483244,-0.62402 -0.601317,-1.133264 -0.118073,-0.509243 -0.253209,-1.030142 -0.341952,-1.551684 -0.08874,-0.521542 -0.131057,-1.043661 -0.193828,-1.419606 -0.06277,-0.375944 -0.146038,-0.605687 0.100377,-0.799274 0.246415,-0.193586 0.822444,-0.350838 1.373235,-0.528986 0.550791,-0.178148 1.076328,-0.377179 1.496069,-0.554709 0.419742,-0.17753 0.733699,-0.333556 0.939799,-0.441659 0.206099,-0.108103 0.304408,-0.168319 0.40334,0.01836 0.09893,0.186683 0.198647,0.62066 0.274277,0.954862 0.07563,0.334201 0.127757,0.571246 0.165302,0.73463 0.03754,0.163384 0.06077,0.254334 0.08396,0.345096 0.08054,0.90423 1.3e-5,1.51e-4 0.120813,1.35642 0.120799,1.35627 0.120753,1.35627 0.171985,1.450947 z"
           id="path2247"
           inkscape:path-effect="#path-effect2253"
           inkscape:original-d="m 46.192247,99.147851 c 0.102509,0.18933 0.204884,0.37853 0.307141,0.5676 -0.403931,0.0996 -0.807971,0.19916 -1.212162,0.298539 -0.442142,0.14511 -0.88441,0.29007 -1.32682,0.43492 -0.663284,0.24462 -1.326693,0.4891 -1.990228,0.73346 -0.100893,-0.49746 -0.201903,-0.99502 -0.303039,-1.492709 -0.135018,-0.5208 -0.270153,-1.0417 -0.405422,-1.56275 -0.0422,-0.52202 -0.0845,-1.04414 -0.126947,-1.56642 -0.08313,-0.22963 -0.166405,-0.45937 -0.2498,-0.68923 0.576189,-0.15714 1.152218,-0.31439 1.728139,-0.47177 0.525679,-0.19891 1.051216,-0.39794 1.576627,-0.5971 0.31409,-0.1559 0.628046,-0.31193 0.941876,-0.46808 0.09842,-0.06 0.196696,-0.12027 0.294851,-0.1806 0.09842,0.43382 0.199425,0.8675 0.298945,1.30106 0.05199,0.23479 0.103864,0.47189 0.155613,0.70765 0.02336,0.091 0.04655,0.18196 0.06966,0.27274 0,0 1.34e-4,1.4e-4 0.241612,2.71269 z"
           sodipodi:nodetypes="ccccccccccccccccc" />
        <path
           style="fill:none"
           d="m 41.114292,96.040791 c -0.21557,-0.305765 -0.431244,-0.611677 -0.702881,-0.941558 -0.271638,-0.329882 -0.599246,-0.683706 -0.889319,-0.994537 -0.290074,-0.310832 -0.542595,-0.578651 -0.723458,-0.749443 -0.180863,-0.170793 -0.290056,-0.2445 -0.307177,-0.106873 -0.01712,0.137626 0.05795,0.486532 0.110497,0.831764 0.05254,0.345233 0.08257,0.686758 0.110553,0.982852 0.02798,0.296093 0.05391,0.546708 0.12899,0.918977 0.07509,0.37227 0.199302,0.86615 0.266851,1.250686 0.06755,0.384537 0.07846,0.659729 0.292367,0.932145 0.213905,0.272415 0.632557,0.543315 0.981991,0.868302 0.349435,0.324988 0.630623,0.704604 0.88863,1.009284 0.258007,0.30468 0.492789,0.53442 0.727446,0.76404"
           id="path2249"
           inkscape:path-effect="#path-effect2255"
           inkscape:original-d="m 41.114292,96.040791 c -0.215549,-0.30578 -0.431225,-0.61169 -0.647025,-0.91774 -0.327494,-0.3537 -0.655096,-0.70753 -0.982833,-1.06148 -0.252412,-0.26771 -0.504933,-0.53553 -0.757596,-0.80349 -0.109081,-0.0736 -0.218279,-0.1473 -0.327611,-0.22114 0.07518,0.34905 0.15028,0.69795 0.225228,1.04674 0.03022,0.34168 0.0602,0.68321 0.09009,1.02463 0.02612,0.25076 0.05199,0.50138 0.07778,0.75189 0.124343,0.49402 0.248561,0.9879 0.372653,1.48165 0.01105,0.27534 0.02202,0.55053 0.03274,0.8256 0.416473,0.27043 0.835533,0.5407 1.253111,0.81086 0.281329,0.37977 0.562525,0.75938 0.843595,1.138889 0.234923,0.22987 0.469703,0.45961 0.704358,0.68923" />
      </g>
      <g
         id="g2271"
         transform="matrix(0.48752304,0,0,0.48752304,12.472815,35.217403)"
         style="fill:#58504b;stroke:#58504b;stroke-width:0;stroke-miterlimit:7.4">
        <g
           id="g2267">
          <path
             d="m 154.95712,147.3601 c 0.0689,0.19945 0.20984,0.60716 0.26205,0.78082 0.0522,0.17365 0.0519,0.21765 0.0515,0.26135"
             id="path2257"
             inkscape:path-effect="#path-effect2273"
             inkscape:original-d="m 154.95712,147.3601 c 0.0723,0.19828 0.20999,0.60711 0.31459,0.91027 -1e-4,0.0442 -5.3e-4,0.0882 -0.001,0.1319" />
          <g
             id="g2265">
            <path
               d="m 154.95712,147.3601 c 0.69689,0.33103 1.09688,0.52104 1.70759,0.83952 0.61071,0.31849 0.70264,0.385 0.94759,0.63982 0.24495,0.25481 0.70127,0.79952 1.064,1.2787 0.36272,0.47919 0.69511,0.9683 1.02731,1.45712"
               id="path2259"
               inkscape:path-effect="#path-effect2275"
               inkscape:original-d="m 154.95712,147.3601 c 0.69683,0.33115 1.09683,0.52115 2.08972,0.99265 0.22854,0.16541 0.32048,0.23192 0.48033,0.34749 0.40926,0.32768 0.78642,0.9387 1.17924,1.40765 0.33267,0.4894 0.66506,0.97851 0.9972,1.46737"
               sodipodi:nodetypes="ccccc" />
            <path
               d="m 155.31742,148.40392 c -0.36058,0.31547 -1.01927,0.89176 -1.2732,1.2923 -0.25393,0.40053 -0.25441,0.30705 -0.31189,0.51065 -0.0575,0.20359 -0.17305,0.48019 -0.29765,0.8212 -0.12461,0.34102 -0.25825,0.7464 -0.3176,1.02043 -0.0593,0.27404 -0.0445,0.41659 0.2118,0.4962 0.25628,0.0796 0.75371,0.0965 1.25314,0.0826 0.49944,-0.014 1.02947,-0.0613 1.42549,-0.10243 0.39602,-0.0411 0.673,-0.0772 0.97538,-0.13692 0.30239,-0.0597 0.65571,-0.14926 0.96914,-0.24465 0.31342,-0.0954 0.60016,-0.2 0.77746,-0.27025 0.1773,-0.0703 0.24544,-0.10624 0.33077,-0.15083 0.0853,-0.0446 0.18796,-0.0979 0.27131,-0.14913 0.0833,-0.0513 0.14757,-0.10055 0.21177,-0.14983"
               id="path2261"
               inkscape:path-effect="#path-effect2277"
               inkscape:original-d="m 155.31742,148.40392 c -0.37594,0.29792 -1.01903,0.89204 -1.52894,1.33767 -0.17289,0.35605 0.002,0.26168 0.002,0.39213 -0.11531,0.27687 -0.23088,0.55347 -0.34671,0.82981 -0.13338,0.40566 -0.26702,0.81104 -0.40093,1.21617 0.0151,0.14282 0.03,0.28537 0.0446,0.42766 0.49771,0.0172 0.99514,0.0341 1.49231,0.0508 0.50217,-0.0397 1.03177,-0.0919 1.54726,-0.1383 0.27655,-0.0359 0.55353,-0.072 0.8299,-0.10835 0.33277,-0.0659 0.68177,-0.17253 1.02226,-0.25919 0.28636,-0.10423 0.57314,-0.20872 0.85931,-0.31348 0.0685,-0.0357 0.13663,-0.0717 0.20454,-0.108 0.10264,-0.0531 0.20536,-0.10621 0.30765,-0.1597 0.0645,-0.049 0.12871,-0.0983 0.19267,-0.1479" />
            <path
               d="m 155.27061,148.40227 c -0.0696,0.0944 -0.13919,0.18865 -0.20873,0.28291"
               id="path2263"
               inkscape:path-effect="#path-effect2279"
               inkscape:original-d="m 155.27061,148.40227 c -0.0693,0.0946 -0.13889,0.18887 -0.20873,0.28291" />
          </g>
        </g>
        <path
           d="m 155.16587,147.47801 c -0.0214,0.0767 -0.0428,0.15325 -0.033,0.26294 0.01,0.10968 0.0769,0.34416 0.10924,0.52086 0.0324,0.17671 0.0431,0.34155 0.51531,0.82491 0.47216,0.48336 1.40787,1.28736 2.11576,1.72982 0.70789,0.44245 1.18916,0.52461 1.45006,0.58503 0.2609,0.0604 0.32719,0.12328 0.20845,-0.0651 -0.11874,-0.18844 -0.48804,-0.73137 -0.91004,-1.18669 -0.422,-0.45531 -0.96033,-0.90075 -1.42104,-1.2592 -0.4607,-0.35844 -0.89893,-0.67054 -1.19735,-0.87626 -0.29842,-0.20572 -0.47851,-0.32033 -0.60305,-0.39716 -0.12453,-0.0768 -0.31372,-0.18383 -0.35351,-0.1784 -0.0398,0.005 0.01,0.0891 0.0593,0.17254"
           id="path2269"
           inkscape:path-effect="#path-effect2281"
           inkscape:original-d="m 155.16587,147.47801 c -0.0211,0.0768 -0.0424,0.15336 -0.0641,0.22963 0.0377,0.14391 0.10819,0.37742 0.16189,0.56573 0.0111,0.16513 0.0218,0.32998 0.0324,0.49458 0.93477,0.8007 1.86923,1.60615 2.80345,2.40883 0.48155,0.0824 0.96281,0.16458 1.44382,0.24648 0.051,0.028 0.10711,0.1016 0.16027,0.152 -0.31219,-0.41261 -0.65987,-0.97025 -0.9902,-1.45577 -0.49732,-0.4449 -1.05209,-0.87048 -1.57852,-1.30612 -0.37469,-0.30973 -0.83322,-0.59333 -1.25022,-0.89039 -0.17984,-0.11436 -0.35994,-0.22897 -0.5403,-0.34386 -0.0792,-0.0202 -0.2579,-0.14575 -0.38725,-0.21902 0.0499,0.084 0.0995,0.1677 0.1489,0.25115" />
      </g>
      <path
         style="fill:#f6e0d3;stroke:#2f2f2f;stroke-width:0;stroke-miterlimit:2"
         d="m 88.076174,107.38119 c 0.07865,0.0293 0.235744,0.088 0.358556,0.14328 0.122813,0.0553 0.211277,0.10727 0.300437,0.16748 0.08916,0.0602 0.178929,0.12859 0.274923,0.21427 0.09599,0.0857 0.198118,0.18855 0.277124,0.27217 0.07901,0.0836 0.134952,0.14805 0.117162,0.15193 -0.01779,0.004 -0.109387,-0.0527 -0.20262,-0.11288 -0.09323,-0.0601 -0.188043,-0.12377 -0.271082,-0.18507 -0.08304,-0.0613 -0.154356,-0.12035 -0.237607,-0.17555 -0.08325,-0.0552 -0.178315,-0.10647 -0.270865,-0.1457 -0.09255,-0.0392 -0.182451,-0.0663 -0.271586,-0.0892 -0.08913,-0.0229 -0.177796,-0.0417 -0.203253,-0.086 -0.02546,-0.0443 0.01234,-0.11416 0.03125,-0.14911 0.01891,-0.035 0.01891,-0.0349 0.09756,-0.006 z"
         id="path2283"
         inkscape:path-effect="#path-effect2285"
         inkscape:original-d="m 87.997527,107.35184 c 0.157254,0.0588 0.314358,0.1174 0.471294,0.17586 0.08866,0.0522 0.177155,0.10409 0.265498,0.15589 0.08998,0.0686 0.179766,0.13696 0.269482,0.20528 0.102283,0.10303 0.204407,0.2059 0.306371,0.30861 0.05609,0.0645 0.112003,0.12895 0.167778,0.19319 -0.09141,-0.0564 -0.18299,-0.11304 -0.274715,-0.1698 -0.09469,-0.0636 -0.189546,-0.12716 -0.284545,-0.19097 -0.07108,-0.0588 -0.142385,-0.11786 -0.213808,-0.17702 -0.0951,-0.0512 -0.190157,-0.10248 -0.285465,-0.15394 -0.08978,-0.027 -0.179709,-0.054 -0.269793,-0.0813 -0.08814,-0.0187 -0.176845,-0.0373 -0.265498,-0.0563 0.03801,-0.0697 0.07577,-0.13956 0.113401,-0.20958 z"
         sodipodi:nodetypes="cccccccccccccc" />
      <path
         style="fill:#ffffff;fill-opacity:0.996839;stroke-width:0.264583px"
         d="m 89.186419,118.86705 c 0.08716,-0.0712 0.261463,-0.21359 0.376715,-0.28697 0.115251,-0.0734 0.171212,-0.0778 0.241925,-0.0231 0.07071,0.0547 0.15611,0.16806 0.20431,0.26693 0.0482,0.0989 0.05941,0.18337 -0.03013,0.25817 -0.08954,0.0748 -0.279932,0.14032 -0.458347,0.15204 -0.178416,0.0117 -0.345032,-0.0305 -0.413454,-0.0887 -0.06842,-0.0583 -0.03833,-0.13258 -0.02325,-0.16982 0.01508,-0.0372 0.01507,-0.0373 0.102236,-0.10847 z"
         id="path2287"
         inkscape:path-effect="#path-effect2289"
         inkscape:original-d="m 89.099257,118.93825 c 0.174561,-0.14211 0.348858,-0.2845 0.522891,-0.42714 0.05627,-0.004 0.112262,-0.008 0.167997,-0.0132 0.08567,0.11367 0.171064,0.22707 0.256196,0.3402 0.01077,0.0847 0.02267,0.16911 0.0336,0.25327 -0.190135,0.0658 -0.380529,0.1313 -0.57119,0.19656 -0.166336,-0.0419 -0.332931,-0.0842 -0.49979,-0.12663 0.03036,-0.0741 0.06046,-0.14842 0.0903,-0.22303 z" />
      <path
         style="fill:none;stroke:#e3ad1c;stroke-width:0.45;stroke-miterlimit:5.33"
         d="m 90.036298,119.06826 c 0.01772,-0.0491 0.03549,-0.0983 -0.0068,-0.20754 -0.04227,-0.10929 -0.144639,-0.27882 -0.240908,-0.33911 -0.09627,-0.0603 -0.186335,-0.0112 -0.326951,0.0878 -0.140617,0.0989 -0.332574,0.24822 -0.618109,0.41743 -0.285535,0.1692 -0.666377,0.35963 -1.071124,0.58815 -0.404747,0.22852 -0.833368,0.49512 -1.130248,0.4479 -0.29688,-0.0472 -0.462043,-0.4084 -0.653143,-0.77821 -0.191099,-0.36981 -0.408138,-0.7482 -0.622056,-1.05569 -0.213917,-0.30749 -0.423522,-0.54269 -0.559419,-0.54517 -0.135897,-0.002 -0.197322,0.22848 -0.258725,0.45936"
         id="path2291"
         inkscape:path-effect="#path-effect2293"
         inkscape:original-d="m 90.036298,119.06826 c 0.01792,-0.049 0.03566,-0.0982 0.05325,-0.14743 -0.102257,-0.16942 -0.204632,-0.33895 -0.30714,-0.50863 -0.08997,0.0493 -0.180052,0.0984 -0.27027,0.14743 -0.190978,0.14879 -0.383453,0.29744 -0.573326,0.44597 -0.380715,0.19056 -0.761556,0.38099 -1.142539,0.57129 -0.428496,0.26673 -0.857116,0.53333 -1.285871,0.7998 -0.165041,-0.36108 -0.330206,-0.72227 -0.495506,-1.08361 -0.216915,-0.37827 -0.433954,-0.75666 -0.651128,-1.13519 -0.211456,-0.23576 -0.420299,-0.47164 -0.630649,-0.70766 -0.06128,0.23111 -0.122719,0.46207 -0.18428,0.69291"
         sodipodi:nodetypes="ccccccccccc" />
      <path
         style="fill:#f6e0d3;stroke-width:0.264583px"
         d="m 91.185344,121.11752 c 0.111876,0.007 0.335353,0.0204 0.465772,0.32092 0.130419,0.30051 0.168035,0.88765 0.181509,1.34236 0.01347,0.45472 0.0028,0.77701 -0.03589,0.9316 -0.03872,0.15459 -0.105747,0.14166 -0.191902,0.10949 -0.08615,-0.0322 -0.190271,-0.0831 -0.297638,-0.23987 -0.107368,-0.15675 -0.216277,-0.41688 -0.278334,-0.79267 -0.06206,-0.37579 -0.07666,-0.86603 -0.06134,-1.16491 0.01531,-0.29889 0.0606,-0.40624 0.08327,-0.45999 0.02267,-0.0537 0.02267,-0.0537 0.13455,-0.0469 z"
         id="path2295"
         inkscape:path-effect="#path-effect2297"
         inkscape:original-d="m 91.073467,121.11071 c 0.223742,0.0138 0.447219,0.0274 0.670433,0.0408 0.03788,0.58742 0.0755,1.17456 0.11285,1.76144 -0.01037,0.32258 -0.02101,0.64487 -0.03193,0.96692 -0.0668,-0.0129 -0.133871,-0.0256 -0.201202,-0.0388 -0.104918,-0.0514 -0.209109,-0.1022 -0.314058,-0.1537 -0.109125,-0.26235 -0.218512,-0.52228 -0.328163,-0.78382 -0.01434,-0.49 -0.02894,-0.98024 -0.0438,-1.47076 0.04556,-0.1071 0.09084,-0.21446 0.135869,-0.32208 z" />
      <path
         style="fill:#f6e0d3;stroke-width:0.264583px"
         d="m 83.929329,121.22615 c -0.04903,0.12302 -0.147034,0.36893 -0.13604,0.61983 0.01099,0.2509 0.130773,0.5066 0.317019,0.67741 0.186247,0.17081 0.440547,0.25753 0.721668,0.30248 0.281121,0.0449 0.589967,0.0485 0.787515,-0.0132 0.197547,-0.0617 0.283257,-0.18766 0.297178,-0.3577 0.01392,-0.17005 -0.04449,-0.38388 -0.12645,-0.60447 -0.08196,-0.22059 -0.188223,-0.44941 -0.340884,-0.64795 -0.152661,-0.19854 -0.353062,-0.36819 -0.559956,-0.46497 -0.206894,-0.0968 -0.420706,-0.12084 -0.573826,-0.0478 -0.15312,0.0731 -0.245182,0.24326 -0.291188,0.3283 -0.04601,0.085 -0.04601,0.0851 -0.09504,0.20808 z"
         id="path2299"
         inkscape:path-effect="#path-effect2301"
         inkscape:original-d="m 83.978358,121.10313 c -0.09774,0.24617 -0.195742,0.49208 -0.294011,0.73772 0.12005,0.25598 0.239829,0.51168 0.359347,0.76712 0.252701,0.0867 0.507108,0.17311 0.760267,0.25927 0.309131,0.004 0.617984,0.007 0.926579,0.0107 0.08639,-0.12714 0.172511,-0.25277 0.258371,-0.37955 -0.05814,-0.21357 -0.116547,-0.4274 -0.175218,-0.64149 -0.105659,-0.22694 -0.211582,-0.45591 -0.317767,-0.68426 -0.199708,-0.16814 -0.399669,-0.33831 -0.599901,-0.50785 -0.213566,-0.0238 -0.427386,-0.0478 -0.641477,-0.0722 -0.0918,0.17044 -0.183861,0.34061 -0.27619,0.51052 z" />
      <path
         style="fill:#f6e0d3;stroke-width:0.264583px"
         d="m 79.097995,124.43994 c -0.278472,0.0227 -0.835667,0.068 -1.281735,0.12461 -0.446068,0.0566 -0.783151,0.12484 -1.126575,0.2877 -0.343425,0.16286 -0.694114,0.42053 -1.031209,0.74504 -0.337095,0.3245 -0.660456,0.71569 -0.956905,1.07386 -0.296449,0.35816 -0.565933,0.68324 -0.950492,0.92953 -0.384559,0.2463 -0.884342,0.41388 -1.398391,0.46908 -0.51405,0.0552 -1.043995,-0.002 -1.551476,-0.12752 -0.507481,-0.12533 -0.993264,-0.31874 -1.397525,-0.54644 -0.404261,-0.22769 -0.72695,-0.48977 -1.020119,-0.8435 -0.29317,-0.35372 -0.557421,-0.80036 -0.718102,-1.2417 -0.160681,-0.44134 -0.218159,-0.87917 -0.17699,-1.33161 0.04117,-0.45244 0.181338,-0.9211 0.342606,-1.32357 0.161269,-0.40247 0.344122,-0.73981 0.526693,-1.08512 0.182571,-0.34531 0.365519,-0.69986 0.524887,-0.9893 0.159368,-0.28943 0.29633,-0.51574 0.436677,-0.7564 0.140347,-0.24066 0.284543,-0.49644 0.382191,-0.70304 0.09765,-0.20661 0.148747,-0.36411 0.08657,-0.48118 -0.06217,-0.11706 -0.239152,-0.19418 -0.492376,-0.17056 -0.253224,0.0236 -0.585538,0.14881 -0.954812,0.32396 -0.369274,0.17515 -0.776661,0.40069 -1.161316,0.62434 -0.384655,0.22366 -0.746544,0.44542 -1.088492,0.74285 -0.341948,0.29744 -0.662626,0.66907 -0.94928,1.02661 -0.286654,0.35754 -0.538646,0.70026 -0.744571,1.05148 -0.205925,0.35122 -0.365287,0.70979 -0.532587,1.09946 -0.1673,0.38967 -0.342291,0.80987 -0.482288,1.209 -0.139997,0.39914 -0.244992,0.77713 -0.304478,1.22794 -0.05949,0.4508 -0.07347,0.97309 -0.05626,1.43428 0.01721,0.46118 0.06543,0.85934 0.143513,1.23452 0.07808,0.37519 0.185877,0.72673 0.306882,1.06352 0.121004,0.33679 0.255624,0.65989 0.404392,0.97111 0.148769,0.31122 0.311865,0.6111 0.501065,0.87553 0.189199,0.26444 0.403772,0.49279 0.690594,0.74899 0.286821,0.2562 0.644898,0.53946 1.046358,0.79552 0.40146,0.25607 0.845945,0.48476 1.373741,0.68759 0.527796,0.20283 1.138874,0.37986 1.661761,0.50017 0.522887,0.1203 0.95757,0.18393 1.453165,0.24535 0.495594,0.0614 1.052071,0.12064 1.640739,0.114 0.588668,-0.007 1.209544,-0.0791 1.803485,-0.1588 0.593941,-0.0797 1.160919,-0.16664 1.671885,-0.28509 0.510966,-0.11846 0.965947,-0.26839 1.352789,-0.45371 0.386841,-0.18532 0.705036,-0.40561 1.066612,-0.61447 0.361576,-0.20886 0.766163,-0.40604 1.091737,-0.50428 0.325573,-0.0982 0.571965,-0.0976 0.820032,-0.0468 0.248066,0.0507 0.498173,0.15164 0.705333,0.25766 0.207161,0.10601 0.374516,0.21914 0.39224,-0.33135 0.01772,-0.55048 -0.112495,-1.76407 -0.38526,-3.08444 -0.272766,-1.32037 -0.687558,-2.74567 -0.942329,-3.56468 -0.254771,-0.819 -0.349268,-1.03069 -0.396589,-1.13669 -0.04732,-0.106 -0.04732,-0.10611 -0.325794,-0.0834 z"
         id="path2303"
         inkscape:path-effect="#path-effect2305"
         inkscape:original-d="m 79.376468,124.41727 c -0.556924,0.0456 -1.114116,0.091 -1.671572,0.13608 -0.334335,0.0696 -0.671724,0.13635 -1.007983,0.20412 -0.350435,0.25794 -0.701124,0.51561 -1.052081,0.77302 -0.322437,0.39214 -0.646525,0.78273 -0.970185,1.1737 -0.269237,0.32536 -0.538726,0.65043 -0.808487,0.97526 -0.499536,0.16784 -0.999318,0.33542 -1.499375,0.50274 -0.528235,-0.0564 -1.058117,-0.1144 -1.587573,-0.17199 -0.485537,-0.19315 -0.971319,-0.38656 -1.457375,-0.58024 -0.322437,-0.26182 -0.645125,-0.5239 -0.968084,-0.78625 -0.262237,-0.44579 -0.527527,-0.89182 -0.791687,-1.33813 -0.05714,-0.43634 -0.114533,-0.87418 -0.172197,-1.31167 0.140265,-0.46721 0.28026,-0.93593 0.419993,-1.40429 0.182265,-0.33679 0.365658,-0.67384 0.548091,-1.01116 0.182965,-0.35318 0.365658,-0.70786 0.548091,-1.06219 0.136065,-0.22465 0.27326,-0.45082 0.409493,-0.67663 0.144465,-0.25552 0.288659,-0.5113 0.432593,-0.76735 0.05136,-0.15724 0.102462,-0.31474 0.153297,-0.4725 -0.175436,-0.0766 -0.352529,-0.15346 -0.529191,-0.23059 -0.329437,0.12501 -0.661925,0.24975 -0.993284,0.37423 -0.407136,0.22581 -0.814522,0.45135 -1.222179,0.67663 -0.361637,0.22203 -0.723524,0.44379 -1.085682,0.66528 -0.321737,0.37324 -0.642325,0.74494 -0.963884,1.11701 -0.251736,0.34299 -0.503727,0.68571 -0.755987,1.02817 -0.159336,0.36 -0.31893,0.71847 -0.478792,1.07731 -0.174736,0.42049 -0.34973,0.84069 -0.524991,1.26064 -0.104736,0.37828 -0.209733,0.75627 -0.314995,1.13401 -0.01304,0.52381 -0.02773,1.04608 -0.042,1.56872 0.04856,0.3997 0.09686,0.79785 0.144898,1.19638 0.108065,0.35182 0.215861,0.70336 0.323395,1.05464 0.134665,0.3222 0.26906,0.64539 0.403193,0.96769 0.163365,0.30015 0.326459,0.60003 0.489292,0.89964 0.215165,0.2296 0.430057,0.45765 0.644689,0.68608 0.358666,0.28441 0.717053,0.56727 1.075182,0.85051 0.444766,0.22896 0.88925,0.45765 1.333478,0.68608 0.611366,0.1773 1.222444,0.35433 1.833269,0.5311 0.434966,0.0639 0.86965,0.12752 1.304078,0.19089 0.556767,0.0595 1.113246,0.1187 1.669471,0.17766 0.621168,-0.0722 1.242044,-0.14464 1.862669,-0.21735 0.567267,-0.0867 1.134248,-0.17362 1.700972,-0.26083 0.455266,-0.14968 0.910249,-0.29961 1.364978,-0.44982 0.318764,-0.22087 0.637254,-0.44074 0.955484,-0.66151 0.404866,-0.19693 0.809451,-0.39412 1.213779,-0.59157 0.246666,7.9e-4 0.493056,0.002 0.739187,0.002 0.250167,0.10044 0.500058,0.20186 0.749689,0.3024 0.166164,0.10926 0.332058,0.22455 0.497692,0.33643 -0.127836,-1.21316 -0.26013,-2.42653 -0.390594,-3.64019 -0.409937,-1.42861 -0.829921,-2.8524 -1.24528,-4.279 -0.09423,-0.21142 -0.188732,-0.4231 -0.283495,-0.63505 z" />
      <g
         id="g2339"
         style="stroke:hsl(30, 81%, 49%);stroke-width:0.45;stroke-miterlimit:5.33"
         transform="translate(7.3220588,-6.6955559)">
        <path
           style="fill:none"
           d="m 81.396154,119.20072 c -0.166443,0.37212 -0.332859,0.74418 -0.538575,1.07332 -0.205717,0.32914 -0.450731,0.61538 -0.720312,0.85464 -0.269582,0.23925 -0.563745,0.43152 -0.773774,0.57107 -0.210029,0.13955 -0.335302,0.22595 -0.538335,0.31717 -0.203033,0.0912 -0.483534,0.18704 -0.678408,0.25953 -0.194874,0.0725 -0.304065,0.12162 -0.486973,0.17937 -0.182909,0.0577 -0.439527,0.12408 -0.735035,0.13792 -0.295507,0.0139 -0.629933,-0.0249 -0.972113,-0.14548 -0.342179,-0.12062 -0.692097,-0.32324 -1.071589,-0.58491 -0.379492,-0.26168 -0.788523,-0.58243 -1.126212,-0.96667 -0.337688,-0.38425 -0.598412,-0.82268 -0.817215,-1.31974 -0.218802,-0.49706 -0.392726,-1.04766 -0.458248,-1.5903 -0.06552,-0.54264 -0.02252,-1.07706 0.123474,-1.68618 0.145998,-0.60913 0.394901,-1.2926 0.556012,-1.85872 0.161111,-0.56613 0.234268,-1.01454 0.412993,-1.46392 0.178726,-0.44938 0.46229,-0.89846 0.813615,-1.32648 0.351325,-0.42802 0.769402,-0.83376 1.062596,-1.10259 0.293194,-0.26883 0.462368,-0.40136 0.745344,-0.60689 0.282976,-0.20552 0.930647,-0.66023 1.351447,-0.9038 0.420801,-0.24358 0.739828,-0.36386 1.167618,-0.51451 0.427789,-0.15065 0.965538,-0.33206 1.505781,-0.44322 0.540243,-0.11115 1.084876,-0.15236 1.624075,-0.17754 0.5392,-0.0252 1.073603,-0.0344 1.592335,-0.0187 0.518732,0.0157 1.023097,0.0562 1.526047,0.13325 0.502951,0.077 1.005121,0.19046 1.44709,0.31191 0.44197,0.12146 0.823704,0.2509 1.201353,0.43444 0.377648,0.18354 0.751192,0.42113 1.146034,0.72277 0.394842,0.30165 0.810979,0.6673 1.245642,1.10998 0.434663,0.44268 0.887852,0.96236 1.211061,1.48866 0.323208,0.52631 0.517592,1.06226 0.67381,1.49918 0.156219,0.43693 0.274822,0.77634 0.291591,1.21677 0.01677,0.44042 -0.09614,1.15977 -0.197952,1.67225 -0.101812,0.51249 -0.206475,0.90705 -0.366283,1.32736 -0.159809,0.4203 -0.342094,0.79859 -0.662487,1.20117 -0.320393,0.40258 -0.760854,0.79407 -1.184776,1.19328 -0.423922,0.3992 -0.812341,0.78727 -1.084424,1.0087 -0.272083,0.22142 -0.363934,0.25006 -0.483341,0.28729"
           id="path2307"
           inkscape:path-effect="#path-effect2341"
           inkscape:original-d="m 81.396154,119.20072 c -0.166288,0.37219 -0.332701,0.74425 -0.499248,1.11618 -0.244903,0.2864 -0.489922,0.57264 -0.735075,0.85877 -0.294047,0.19241 -0.588211,0.38468 -0.882501,0.57682 -0.125457,0.0874 -0.251039,0.17335 -0.376755,0.25984 -0.280384,0.096 -0.560901,0.19178 -0.841544,0.28749 -0.109073,0.0493 -0.218279,0.0984 -0.327611,0.14742 -0.256506,0.0665 -0.51313,0.13282 -0.769887,0.19903 -0.334308,-0.0386 -0.668734,-0.0773 -1.003302,-0.1161 -0.349806,-0.20249 -0.69972,-0.40511 -1.049776,-0.60785 -0.408922,-0.32063 -0.817952,-0.64138 -1.227116,-0.96226 -0.261964,-0.45015 -0.526885,-0.88608 -0.790524,-1.32932 -0.174542,-0.55069 -0.347846,-1.10149 -0.521962,-1.65242 0.04312,-0.53431 0.08613,-1.06873 0.128998,-1.60329 0.249304,-0.68358 0.498208,-1.36705 0.746976,-2.05114 0.07344,-0.44823 0.146591,-0.89664 0.219473,-1.34525 0.28338,-0.45076 0.567992,-0.89918 0.851783,-1.34897 0.418524,-0.40653 0.836905,-0.81196 1.255162,-1.21813 0.168707,-0.13072 0.337289,-0.26401 0.505745,-0.39621 0.404877,-0.26832 1.045163,-0.73355 1.567552,-1.10053 0.319163,-0.12016 0.638193,-0.24044 0.957088,-0.36086 0.536605,-0.18109 1.074424,-0.3623 1.611439,-0.54364 0.543428,-0.041 1.088062,-0.0822 1.631901,-0.12348 0.534553,-0.009 1.068956,-0.0182 1.603242,-0.0276 0.503159,0.0407 1.007531,0.0812 1.511099,0.12162 0.502321,0.11358 1.004491,0.22703 1.506536,0.34035 0.381887,0.12958 0.763624,0.25901 1.145252,0.38833 0.373675,0.23772 0.747215,0.47532 1.12063,0.71278 0.41628,0.3658 0.832418,0.73145 1.248431,1.09697 0.453335,0.51982 0.90652,1.0395 1.359588,1.55905 0.192601,0.53334 0.387798,1.06899 0.581504,1.60329 0.118734,0.33955 0.237334,0.67897 0.355809,1.01825 -0.0761,0.54299 -0.197767,1.26096 -0.296852,1.89125 -0.104535,0.3947 -0.209203,0.78926 -0.313998,1.18371 -0.26435,0.42233 -0.397099,0.82449 -0.595846,1.23654 -0.441212,0.39414 -0.882534,0.78466 -1.323998,1.17679 -0.403337,0.40931 -0.794794,0.79434 -1.192387,1.19132 -0.141975,0.0609 -0.238515,0.0745 -0.35796,0.11161"
           sodipodi:nodetypes="cccccccccccccccccccccccccccccccccccccc" />
        <path
           style="fill:none"
           d="m 77.495866,122.64311 c 0.405534,0.0295 0.810936,0.0591 1.201377,0.0886 0.390441,0.0295 0.765905,0.0591 1.121585,0.0525 0.355681,-0.007 0.691564,-0.0491 0.921776,-0.0756 0.230213,-0.0265 0.354721,-0.0369 0.469069,0.12473 0.114348,0.16166 0.218591,0.49525 0.287105,0.84925 0.06851,0.354 0.101333,0.72842 0.08732,1.03463 -0.01401,0.30621 -0.07482,0.54423 -0.119608,0.65024 -0.04479,0.10602 -0.07377,0.0799 -0.10287,0.0537"
           id="path2309"
           inkscape:path-effect="#path-effect2343"
           inkscape:original-d="m 77.495866,122.64311 c 0.40553,0.0296 0.810927,0.0592 1.216189,0.0886 0.375617,0.0297 0.751083,0.0592 1.126423,0.0886 0.336042,-0.0425 0.671933,-0.085 1.007707,-0.12771 0.124644,-0.0103 0.249155,-0.0207 0.37354,-0.0313 0.104376,0.33373 0.208626,0.66731 0.312734,1.00077 0.03299,0.37456 0.0658,0.74898 0.09846,1.12328 -0.0607,0.23816 -0.121488,0.47619 -0.182429,0.71409 -0.0288,-0.0259 -0.05777,-0.052 -0.08687,-0.0782" />
        <path
           style="fill:none"
           d="m 88.010121,121.51984 c 0.318675,0.21555 0.637205,0.431 0.958933,0.72781 0.321729,0.29681 0.64926,0.67794 0.990944,1.15488 0.341683,0.47695 0.698812,1.05117 1.044298,1.64699 0.345487,0.59582 0.681504,1.21723 1.014988,1.89398 0.333484,0.67675 0.665517,1.41081 0.988576,2.51659 0.323059,1.10578 0.637398,2.58431 0.716677,3.80551 0.07928,1.22121 -0.07633,2.18562 -0.346615,3.09105 -0.270286,0.90544 -0.655227,1.75192 -1.101594,2.50563 -0.446367,0.75371 -0.954155,1.41468 -1.581065,1.88043 -0.62691,0.46575 -1.371423,0.73575 -2.109218,0.91942 -0.737796,0.18368 -1.468073,0.28073 -2.433839,0.29614 -0.965767,0.0154 -2.169713,-0.051 -3.480841,-0.20458 -1.311128,-0.15356 -2.730744,-0.39436 -3.966798,-0.63823 -1.236055,-0.24387 -2.288476,-0.4908 -3.159381,-0.80591 -0.870904,-0.3151 -1.560237,-0.69841 -2.070082,-0.9509 -0.509845,-0.25248 -0.840178,-0.37411 -1.2387,-0.32351 -0.398523,0.0506 -0.862875,0.27243 -1.355763,0.55339 -0.492888,0.28096 -1.015519,0.62205 -1.523928,0.85194 -0.50841,0.22989 -1.001261,0.34876 -1.737016,0.46302 -0.735755,0.11426 -1.713104,0.2236 -2.778518,0.21932 -1.065414,-0.004 -2.218855,-0.12223 -3.418047,-0.42566 -1.199192,-0.30344 -2.444088,-0.79241 -3.375769,-1.56883 -0.93168,-0.77642 -1.550029,-1.84035 -1.927498,-2.86131 -0.37747,-1.02096 -0.513971,-1.99887 -0.485059,-2.91474 0.02891,-0.91587 0.222211,-1.76492 0.53208,-2.6096 0.309868,-0.84468 0.735753,-1.68255 1.230597,-2.41358 0.494844,-0.73102 1.058593,-1.35512 1.732963,-1.85333 0.67437,-0.49821 1.459251,-0.87046 1.988903,-1.08791 0.529652,-0.21746 0.804029,-0.28011 1.023812,-0.25627 0.219783,0.0238 0.382257,0.13231 0.432738,0.19798 0.05048,0.0657 -0.01234,0.0878 -0.0752,0.10997"
           id="path2311"
           inkscape:path-effect="#path-effect2345"
           inkscape:original-d="m 88.010121,121.51984 c 0.318653,0.21558 0.637188,0.43102 0.955581,0.64634 0.32638,0.37716 0.652618,0.7594 0.978739,1.1389 0.357273,0.57438 0.714404,1.1486 1.071409,1.7227 0.335071,0.61694 0.669999,1.23894 1.004801,1.85822 0.332174,0.73422 0.664214,1.46828 0.99612,2.20223 0.311637,1.47817 0.628582,2.95615 0.94268,4.43402 -0.155488,0.96458 -0.311101,1.92899 -0.46684,2.89329 -0.384826,0.84662 -0.769762,1.6931 -1.154831,2.53945 -0.507679,0.66111 -1.015458,1.32208 -1.523389,1.98292 -0.745197,0.27287 -1.490495,0.5407 -2.235935,0.81086 -0.730186,0.0972 -1.460464,0.19424 -2.190892,0.29116 -1.201128,-0.0662 -2.405078,-0.13255 -3.607805,-0.19902 -1.419541,-0.24067 -2.839157,-0.48147 -4.258932,-0.72241 -1.052338,-0.24681 -2.10476,-0.49374 -3.157341,-0.74082 -0.689229,-0.38319 -1.378559,-0.7665 -2.06804,-1.14994 -0.330214,-0.1215 -0.660546,-0.24313 -0.99102,-0.36489 -0.466723,0.22251 -0.930825,0.44487 -1.396434,0.66712 -0.517232,0.34413 -1.042769,0.68076 -1.564337,1.02093 -0.495389,0.11931 -0.988166,0.23848 -1.482433,0.35752 -0.977265,0.10947 -1.954613,0.21882 -2.932113,0.32803 -1.153356,-0.11781 -2.306796,-0.23576 -3.460387,-0.35382 -1.244806,-0.48886 -2.489704,-0.97782 -3.734752,-1.46692 -0.618242,-1.06384 -1.236593,-2.12776 -1.855086,-3.19183 -0.136382,-0.97784 -0.272882,-1.95576 -0.409515,-2.93383 0.193974,-0.85374 0.387798,-1.70267 0.581505,-2.5542 0.426034,-0.83778 0.851917,-1.67565 1.277683,-2.51366 0.563906,-0.624 1.127654,-1.2481 1.691284,-1.87234 0.785049,-0.37214 1.56993,-0.74439 2.354702,-1.11678 0.274498,-0.0625 0.54887,-0.12518 0.823117,-0.18797 0.166673,0.10825 0.327736,0.21882 0.491412,0.32803 -0.06262,0.0223 -0.125457,0.0444 -0.188373,0.0664" />
        <path
           style="fill:none"
           d="m 86.985453,130.80957 c -0.51995,-0.0111 -1.040028,-0.0221 -1.457732,-0.0553 -0.417704,-0.0332 -0.733016,-0.0884 -1.072565,-0.1967 -0.339548,-0.10825 -0.707423,-0.27133 -1.056887,-0.49061 -0.349463,-0.21928 -0.682522,-0.4957 -0.905749,-0.77764 -0.223226,-0.28194 -0.336524,-0.56943 -0.306811,-0.81672 0.02971,-0.24729 0.203634,-0.45559 0.469891,-0.57293 0.266257,-0.11734 0.625245,-0.14438 0.968487,-0.13516 0.343242,0.009 0.671009,0.0547 1.091342,0.15398 0.420333,0.0993 0.936535,0.25333 1.356373,0.39071 0.419838,0.13739 0.74727,0.25946 1.073358,0.38104"
           id="path2313"
           inkscape:path-effect="#path-effect2347"
           inkscape:original-d="m 86.985453,130.80957 c -0.519953,-0.0109 -1.040031,-0.022 -1.560243,-0.0332 -0.315204,-0.0552 -0.630524,-0.11044 -0.94597,-0.16586 -0.364348,-0.15958 -0.731534,-0.32421 -1.097498,-0.48651 -0.332944,-0.27631 -0.666013,-0.55272 -0.999208,-0.82929 -0.113175,-0.28736 -0.226475,-0.57484 -0.339901,-0.86246 0.172131,-0.20749 0.34685,-0.41512 0.520086,-0.62288 0.359141,-0.027 0.718139,-0.0539 1.077011,-0.0811 0.327745,0.0444 0.655356,0.091 0.982833,0.13636 0.513397,0.15248 1.029373,0.30728 1.543867,0.46071 0.325015,0.12177 0.652618,0.24339 0.97873,0.3649" />
        <path
           style="fill:none"
           d="m 76.755826,127.59502 c -0.09419,0.1247 -0.282576,0.37411 -0.348756,0.63832 -0.06618,0.26421 -0.01022,0.54309 0.106094,0.74362 0.11631,0.20052 0.29468,0.32401 0.50912,0.41185 0.21444,0.0878 0.465356,0.14061 0.721286,0.15779 0.255931,0.0172 0.516653,-0.001 0.649689,-0.17873 0.133036,-0.17747 0.138506,-0.51408 0.04642,-0.82122 -0.09209,-0.30713 -0.281823,-0.58478 -0.493382,-0.78568 -0.211558,-0.20091 -0.444973,-0.32499 -0.631352,-0.36067 -0.186378,-0.0357 -0.325592,0.0171 -0.395244,0.0436 -0.06965,0.0264 -0.06968,0.0264 -0.163873,0.15116 z"
           id="path2315"
           inkscape:path-effect="#path-effect2349"
           inkscape:original-d="m 76.850021,127.47031 c -0.188248,0.24952 -0.376622,0.49893 -0.565129,0.74819 0.05609,0.27903 0.112061,0.55791 0.167895,0.83666 0.176226,0.12299 0.355038,0.24584 0.532369,0.36857 0.251298,0.0542 0.502463,0.10579 0.753502,0.15849 0.26086,-0.0182 0.521577,-0.0367 0.782169,-0.0553 0.0059,-0.33651 0.01105,-0.67313 0.01641,-1.00988 -0.189621,-0.27754 -0.379351,-0.55519 -0.569223,-0.83297 -0.233298,-0.12397 -0.466714,-0.24805 -0.700272,-0.37226 -0.139103,0.053 -0.278332,0.10578 -0.417695,0.15848 z" />
        <path
           style="fill:none"
           d="m 62.521177,125.54636 c -0.122883,0.25683 -0.245738,0.51359 -0.428376,0.83197 -0.182638,0.31837 -0.426168,0.7001 -0.638435,1.05393 -0.212268,0.35384 -0.393815,0.68063 -0.55724,0.98947 -0.163424,0.30884 -0.310244,0.60276 -0.433782,0.92897 -0.123539,0.32622 -0.224551,0.68619 -0.287327,1.12603 -0.06278,0.43985 -0.08734,0.95952 0.01221,1.42304 0.09954,0.46352 0.323719,0.87197 0.637028,1.25712 0.31331,0.38514 0.715986,0.74756 1.225161,1.02396 0.509175,0.27639 1.124796,0.46682 1.793663,0.57181 0.668866,0.10499 1.393685,0.12466 1.923264,-0.0191 0.529579,-0.14377 0.865372,-0.4509 1.17113,-0.8299 0.305759,-0.379 0.581486,-0.82987 0.919351,-1.24086 0.337865,-0.41098 0.737811,-0.782 1.1605,-1.03146 0.422689,-0.24946 0.867361,-0.37713 1.384764,-0.45328 0.517404,-0.0761 1.109769,-0.10081 1.674286,-0.0359 0.564516,0.0649 1.104958,0.2201 1.550553,0.40273 0.445596,0.18262 0.800689,0.39486 1.270947,0.55147 0.470258,0.15661 1.057213,0.25858 1.610721,0.25978 0.553507,0.001 1.073575,-0.0983 1.443756,-0.2269 0.370181,-0.12859 0.589375,-0.28544 0.741551,-0.43468 0.152176,-0.14924 0.236803,-0.29052 0.321458,-0.43185"
           id="path2317"
           inkscape:path-effect="#path-effect2351"
           inkscape:original-d="m 62.521177,125.54636 c -0.122728,0.2569 -0.245581,0.51367 -0.368568,0.77031 -0.242851,0.37977 -0.485827,0.76185 -0.72893,1.14258 -0.181424,0.32694 -0.362974,0.65373 -0.54465,0.98039 -0.144571,0.29131 -0.291988,0.58493 -0.438182,0.8772 -0.100885,0.36012 -0.201895,0.72009 -0.303039,1.07992 -0.02445,0.51983 -0.04898,1.0395 -0.07368,1.55905 0.222633,0.40804 0.44786,0.81591 0.671598,1.22366 0.402826,0.36258 0.80551,0.72499 1.208069,1.08729 0.615772,0.19056 1.231393,0.38099 1.846897,0.57129 0.722249,0.0198 1.447069,0.0394 2.170414,0.0589 0.335942,-0.30702 0.671732,-0.61416 1.007405,-0.92143 0.275871,-0.45077 0.5516,-0.90164 0.827211,-1.35266 0.400097,-0.3709 0.800043,-0.74192 1.199872,-1.11309 0.445139,-0.12887 0.890136,-0.25541 1.335007,-0.38331 0.589844,-0.0257 1.182266,-0.049 1.773198,-0.0738 0.537961,0.15494 1.078509,0.30973 1.617567,0.4644 0.352317,0.21022 0.70723,0.42276 1.060644,0.63395 0.587105,0.1021 1.17406,0.20407 1.760898,0.30591 0.520221,-0.0994 1.040291,-0.1989 1.560244,-0.29854 0.219903,-0.15836 0.43968,-0.31439 0.659315,-0.47177 0.08477,-0.14116 0.169394,-0.28244 0.253894,-0.42386" />
        <path
           style="fill:none"
           d="m 58.164357,127.42259 c 0.07446,0.18322 0.148853,0.36628 0.274125,0.55793 0.125271,0.19165 0.301363,0.39191 0.501017,0.54575 0.199654,0.15385 0.422832,0.26134 0.655544,0.32243 0.232711,0.0611 0.475051,0.0758 0.657265,0.0715 0.182214,-0.004 0.304393,-0.0276 0.42645,-0.051"
           id="path2319"
           inkscape:path-effect="#path-effect2353"
           inkscape:original-d="m 58.164357,127.42259 c 0.07451,0.1832 0.148916,0.36625 0.223185,0.54918 0.176217,0.20039 0.352309,0.40065 0.528267,0.60077 0.223318,0.10763 0.446495,0.21513 0.669554,0.3225 0.242424,0.0142 0.484723,0.0296 0.726888,0.0442 0.1223,-0.0232 0.244467,-0.0466 0.366507,-0.07" />
        <path
           style="fill:none"
           d="m 55.909995,131.69249 c 0.226056,0.1758 0.451966,0.35148 0.743074,0.5161 0.291107,0.16461 0.647369,0.31817 1.018995,0.41428 0.371626,0.0961 0.758612,0.13481 1.092322,0.0783 0.33371,-0.0565 0.614218,-0.20826 0.81623,-0.33019 0.202012,-0.12193 0.32555,-0.21408 0.407107,-0.28441 0.08156,-0.0703 0.121099,-0.11881 0.160718,-0.16738"
           id="path2321"
           inkscape:path-effect="#path-effect2355"
           inkscape:original-d="m 55.909995,131.69249 c 0.22604,0.17582 0.451946,0.35151 0.677735,0.52706 0.356419,0.15371 0.712679,0.30728 1.068831,0.46072 0.38712,0.0388 0.774106,0.0775 1.160967,0.1161 0.280651,-0.1516 0.56116,-0.30332 0.841552,-0.45518 0.123665,-0.092 0.247196,-0.18416 0.370602,-0.27644 0.03977,-0.0484 0.07928,-0.0969 0.118759,-0.14558" />
        <path
           style="fill:none"
           d="m 57.020612,137.93756 c 0.373385,0.12449 0.748196,0.24945 1.16452,0.29734 0.416325,0.0479 0.874978,0.019 1.304931,-0.10108 0.429953,-0.1201 0.831271,-0.33141 1.209049,-0.62254 0.377778,-0.29114 0.733317,-0.66344 1.023535,-0.99196 0.290218,-0.32852 0.515144,-0.61316 0.677239,-0.89632 0.162095,-0.28316 0.261055,-0.5645 0.311251,-0.74786 0.0502,-0.18336 0.05159,-0.2687 0.053,-0.35421"
           id="path2323"
           inkscape:path-effect="#path-effect2357"
           inkscape:original-d="m 57.020612,137.93756 c 0.373474,0.12422 0.748169,0.24953 1.12207,0.3741 0.458786,-0.0287 0.917437,-0.0576 1.375964,-0.0866 0.401453,-0.21118 0.802772,-0.42249 1.203966,-0.63394 0.35436,-0.3709 0.70995,-0.74315 1.064729,-1.11492 0.22537,-0.28552 0.450589,-0.56993 0.6757,-0.85509 0.09909,-0.28122 0.19806,-0.56255 0.296893,-0.84403 0.0017,-0.0853 0.0025,-0.17064 0.0042,-0.25615" />
        <path
           style="fill:none"
           d="m 65.741719,134.78596 c 0.128868,0.27947 0.2567,0.5567 0.363802,0.94321 0.107103,0.38651 0.193165,0.88198 0.244344,1.34054 0.05118,0.45855 0.06756,0.88057 0.0092,1.29109 -0.05834,0.41053 -0.191494,0.81 -0.41979,1.17516 -0.228296,0.36516 -0.551802,0.69625 -0.917255,0.92138 -0.365453,0.22512 -0.772907,0.34429 -1.033963,0.422 -0.261057,0.0777 -0.375738,0.11395 -0.490485,0.15022"
           id="path2325"
           inkscape:path-effect="#path-effect2359"
           inkscape:original-d="m 65.741719,134.78596 c 0.13254,0.27778 0.256766,0.55667 0.384943,0.83482 0.0875,0.49463 0.172132,0.99035 0.257997,1.48533 0.01649,0.42215 0.0329,0.84416 0.04914,1.26605 -0.132288,0.39942 -0.266058,0.79869 -0.399276,1.19785 -0.323391,0.33124 -0.6469,0.66233 -0.970542,0.9933 -0.407348,0.11931 -0.814804,0.23847 -1.222402,0.35752 -0.114531,0.0363 -0.229196,0.0726 -0.343987,0.10873" />
        <path
           style="fill:none"
           d="m 73.741548,131.66969 c 0.10633,0.28525 0.213007,0.57144 0.298647,1.01499 0.08564,0.44354 0.15047,1.04484 0.209822,1.65146 0.05935,0.60662 0.113323,1.21965 0.115701,1.83178 0.0024,0.61214 -0.04676,1.22396 -0.100345,1.70893 -0.05358,0.48497 -0.111595,0.8431 -0.17985,1.08939 -0.06825,0.2463 -0.146746,0.38083 -0.225207,0.51531"
           id="path2327"
           inkscape:path-effect="#path-effect2361"
           inkscape:original-d="m 73.741548,131.66969 c 0.106603,0.28515 0.21308,0.57141 0.319423,0.85692 0.06564,0.60153 0.12981,1.2029 0.194519,1.80416 0.05408,0.61197 0.107967,1.22501 0.161758,1.83733 -0.04898,0.61197 -0.09816,1.22379 -0.147425,1.83548 -0.05785,0.35827 -0.115904,0.71639 -0.174041,1.07439 -0.07836,0.13466 -0.156852,0.26919 -0.235466,0.40358" />
        <path
           style="fill:none"
           d="m 67.942683,132.70967 c 0.326405,0.16774 0.65265,0.3354 0.945584,0.56522 0.292934,0.22981 0.552577,0.5217 0.783733,0.84618 0.231157,0.32448 0.433854,0.68153 0.646202,1.08071 0.212349,0.39918 0.434351,0.8405 0.594553,1.32264 0.160203,0.48214 0.258656,1.00511 0.294341,1.41514 0.03569,0.41003 0.0086,0.70712 -0.04736,0.95078 -0.056,0.24365 -0.140941,0.43391 -0.225849,0.62409"
           id="path2329"
           inkscape:path-effect="#path-effect2363"
           inkscape:original-d="m 67.942683,132.70967 c 0.326381,0.16779 0.652627,0.33545 0.978747,0.50299 0.25978,0.29203 0.519426,0.58392 0.778937,0.87569 0.202833,0.35718 0.405531,0.71422 0.608095,1.07113 0.222138,0.44146 0.444143,0.88277 0.666013,1.32395 0.09858,0.52311 0.197039,1.04608 0.295362,1.56893 -0.02696,0.29724 -0.05392,0.59434 -0.08113,0.89132 -0.08481,0.19038 -0.169746,0.38064 -0.254815,0.57075" />
        <path
           style="fill:none"
           d="m 78.219496,131.9695 c -0.167018,0.34147 -0.334001,0.68288 -0.451274,1.05125 -0.117273,0.36837 -0.184834,0.76363 -0.195437,1.27578 -0.0106,0.51214 0.03572,1.14109 0.145296,1.74574 0.109572,0.60465 0.282345,1.18495 0.586911,1.78698 0.304565,0.60204 0.740841,1.22577 1.053576,1.67404 0.312734,0.44827 0.501914,0.72104 0.707529,0.95516 0.205615,0.23411 0.427611,0.42957 0.646724,0.61157 0.219114,0.182 0.435318,0.35052 0.651391,0.51895"
           id="path2331"
           inkscape:path-effect="#path-effect2365"
           inkscape:original-d="m 78.219496,131.9695 c -0.166865,0.34155 -0.333848,0.68295 -0.500965,1.02424 -0.06748,0.3954 -0.134992,0.79067 -0.202689,1.18582 0.04646,0.6291 0.09279,1.25805 0.138986,1.88688 0.17291,0.58045 0.345686,1.16075 0.518328,1.74093 0.436424,0.6239 0.872697,1.24764 1.308861,1.87126 0.189311,0.27291 0.378497,0.54568 0.567549,0.81834 0.222138,0.1956 0.444134,0.39106 0.666013,0.5864 0.216345,0.16866 0.432547,0.33719 0.648633,0.5056" />
        <path
           style="fill:none"
           d="m 86.871868,128.57064 c 0.392711,-0.0991 0.789086,-0.19905 1.282642,-0.37327 0.493557,-0.17421 1.088506,-0.42409 1.568983,-0.67595 0.480478,-0.25185 0.84767,-0.50617 1.109401,-0.71167 0.261731,-0.20551 0.416661,-0.36085 0.522076,-0.4669 0.105415,-0.10604 0.156672,-0.15809 0.20991,-0.21215"
           id="path2333"
           inkscape:path-effect="#path-effect2367"
           inkscape:original-d="m 86.871868,128.57064 c 0.393257,-0.0969 0.789126,-0.19889 1.183488,-0.29854 0.592573,-0.24927 1.187724,-0.49867 1.781385,-0.74819 0.367328,-0.2542 0.734523,-0.50851 1.101583,-0.76295 0.15712,-0.1559 0.311361,-0.31193 0.466848,-0.46809 0.05609,-0.0552 0.106603,-0.10798 0.159708,-0.16217" />
        <path
           style="fill:none"
           d="m 83.231303,131.5229 c 0.55982,0.36621 1.119482,0.73232 1.752192,1.04621 0.632709,0.31388 1.338423,0.57556 2.172494,0.80455 0.834071,0.22898 1.799083,0.42582 2.648136,0.52275 0.849053,0.0969 1.583431,0.0943 2.141763,0.0421 0.558331,-0.0522 0.943175,-0.15446 1.205239,-0.25091 0.262065,-0.0964 0.402652,-0.18735 0.54322,-0.27825"
           id="path2335"
           inkscape:path-effect="#path-effect2369"
           inkscape:original-d="m 83.231303,131.5229 c 0.559796,0.36625 1.119458,0.73236 1.679002,1.09834 0.705873,0.26182 1.411588,0.5235 2.117184,0.78506 0.962497,0.1967 1.927564,0.39327 2.891157,0.58972 0.734531,-0.003 1.468911,-0.005 2.203175,-0.008 0.382347,-0.10185 0.767283,-0.20381 1.150728,-0.30591 0.140736,-0.0908 0.28133,-0.1817 0.421798,-0.27275" />
        <path
           style="fill:none"
           d="m 81.265646,132.07207 c 0.170673,0.61444 0.341305,1.22873 0.63602,1.91707 0.294715,0.68833 0.714087,1.45183 1.29221,2.22459 0.578122,0.77277 1.315233,1.55536 2.108344,2.14505 0.793111,0.58969 1.642153,0.98651 2.410028,1.26462 0.767875,0.2781 1.457136,0.43811 1.996317,0.5032 0.539182,0.0651 0.929576,0.0356 1.218925,-0.0326 0.289349,-0.0682 0.477722,-0.17508 0.666056,-0.28194"
           id="path2337"
           inkscape:path-effect="#path-effect2371"
           inkscape:original-d="m 81.265646,132.07207 c 0.17075,0.61442 0.341392,1.22871 0.511891,1.84286 0.417837,0.76309 0.838262,1.52601 1.257196,2.28882 0.737269,0.78275 1.474379,1.56534 2.211371,2.34781 0.849204,0.39696 1.698242,0.79379 2.54717,1.19049 0.686759,0.15984 1.376089,0.31955 2.063945,0.47914 0.390536,-0.0294 0.78093,-0.0589 1.171198,-0.0885 0.188507,-0.10676 0.376881,-0.21364 0.565129,-0.32065" />
      </g>
    </g>
  </g>
</svg>
